<svg width="10" height="11" viewBox="0 0 10 11" fill="none" xmlns="http://www.w3.org/2000/svg">
<path d="M8.88797 1.04519C8.76752 0.992047 8.63775 0.963212 8.50613 0.960339L1.43506 0.960338C1.3032 0.960338 1.17264 0.98631 1.05081 1.03677C0.928992 1.08723 0.818301 1.16119 0.725062 1.25443C0.536759 1.44273 0.430971 1.69813 0.430971 1.96443C0.430971 2.09629 0.456942 2.22686 0.507403 2.34868C0.557863 2.4705 0.631824 2.58119 0.725063 2.67443C0.913367 2.86273 1.16876 2.96852 1.43506 2.96852L6.0949 2.96145L0.727956 8.32839C0.540419 8.51593 0.435063 8.77028 0.435063 9.0355C0.435063 9.30071 0.54042 9.55507 0.727956 9.7426C0.915492 9.93014 1.16985 10.0355 1.43506 10.0355C1.70028 10.0355 1.95463 9.93014 2.14217 9.7426L7.50911 4.37566L7.50204 9.0355C7.5015 9.16751 7.5271 9.29832 7.57737 9.42039C7.62764 9.54245 7.70158 9.65336 7.79492 9.7467C7.88827 9.84005 7.99917 9.91399 8.12124 9.96426C8.24331 10.0145 8.37412 10.0401 8.50613 10.0396C8.63814 10.0401 8.76895 10.0145 8.89102 9.96426C9.01309 9.91399 9.12399 9.84005 9.21734 9.7467C9.31068 9.65336 9.38462 9.54245 9.43489 9.42039C9.48516 9.29832 9.51076 9.16751 9.51022 9.0355L9.51022 1.96443C9.50735 1.83281 9.47851 1.70304 9.42537 1.58259C9.32394 1.33972 9.13084 1.14662 8.88797 1.04519Z" fill="white"/>
</svg>
