<svg width="29" height="28" viewBox="0 0 29 28" fill="none" xmlns="http://www.w3.org/2000/svg">
<path d="M27.3231 12.3434L15.6564 0.67675C15.4345 0.464322 15.1729 0.297804 14.8864 0.18675C14.3184 -0.0466251 13.6812 -0.0466251 13.1131 0.18675C12.8267 0.297804 12.565 0.464322 12.3431 0.67675L0.676448 12.3434C0.458892 12.561 0.286317 12.8193 0.168576 13.1035C0.0508355 13.3878 -0.00976562 13.6924 -0.00976562 14.0001C-0.00976562 14.6215 0.237073 15.2174 0.676448 15.6568C1.11582 16.0961 1.71174 16.343 2.33312 16.343C2.95449 16.343 3.55041 16.0961 3.98978 15.6568L11.6664 7.95675V25.6668C11.6664 26.2856 11.9123 26.8791 12.3499 27.3167C12.7875 27.7543 13.3809 28.0001 13.9998 28.0001C14.6186 28.0001 15.2121 27.7543 15.6497 27.3167C16.0873 26.8791 16.3331 26.2856 16.3331 25.6668V7.95675L24.0098 15.6568C24.2267 15.8755 24.4848 16.049 24.7691 16.1675C25.0534 16.286 25.3584 16.3469 25.6664 16.3469C25.9745 16.3469 26.2795 16.286 26.5638 16.1675C26.8481 16.049 27.1062 15.8755 27.3231 15.6568C27.5418 15.4398 27.7154 15.1818 27.8339 14.8974C27.9523 14.6131 28.0133 14.3081 28.0133 14.0001C28.0133 13.6921 27.9523 13.3871 27.8339 13.1027C27.7154 12.8184 27.5418 12.5603 27.3231 12.3434Z" fill="#3E243C"/>
</svg>
