<svg width="56" height="56" viewBox="0 0 56 56" fill="none" xmlns="http://www.w3.org/2000/svg">
<path d="M52.43 43.9133L50.0967 34.9067L42.7467 7.86333C42.5878 7.26679 42.1991 6.7575 41.6655 6.447C41.132 6.13649 40.4971 6.05007 39.9 6.20667L30.87 8.54C30.6545 8.30117 30.3919 8.10948 30.0988 7.97697C29.8057 7.84446 29.4883 7.774 29.1667 7.77H5.83333C5.21449 7.77 4.621 8.01583 4.18342 8.45342C3.74583 8.891 3.5 9.48449 3.5 10.1033V47.4367C3.5 48.0555 3.74583 48.649 4.18342 49.0866C4.621 49.5242 5.21449 49.77 5.83333 49.77H29.1667C29.7855 49.77 30.379 49.5242 30.8166 49.0866C31.2542 48.649 31.5 48.0555 31.5 47.4367V28.77L36.6333 47.95C36.7701 48.459 37.0751 48.9068 37.4988 49.2203C37.9225 49.5339 38.4399 49.6947 38.9667 49.6767C39.1682 49.6996 39.3718 49.6996 39.5733 49.6767L50.8433 46.6667C51.1413 46.587 51.4205 46.4491 51.6648 46.2608C51.9091 46.0726 52.1137 45.8378 52.2667 45.57C52.5128 45.0538 52.5706 44.4677 52.43 43.9133ZM15.0967 45.1967H8.09667V40.53H15.0967V45.1967ZM15.0967 35.8633H8.09667V21.8633H15.0967V35.8633ZM15.0967 17.1967H8.09667V12.53H15.0967V17.1967ZM26.7633 45.1967H19.7633V40.53H26.7633V45.1967ZM26.7633 35.8633H19.7633V21.8633H26.7633V35.8633ZM26.7633 17.1967H19.7633V12.53H26.7633V17.1967ZM32.0133 13.1367L38.78 11.3167L39.9933 15.82L33.2267 17.64L32.0133 13.1367ZM38.0567 35.6767L34.44 22.1433L41.2067 20.3233L44.8233 33.8567L38.0567 35.6767ZM40.39 44.6833L39.1767 40.18L45.9433 38.36L47.1567 42.8633L40.39 44.6833Z" fill="url(#paint0_linear_377_628)"/>
<defs>
<linearGradient id="paint0_linear_377_628" x1="3.5" y1="27.9502" x2="52.5052" y2="27.9502" gradientUnits="userSpaceOnUse">
<stop stop-color="#3E243C"/>
<stop offset="0.755" stop-color="#71416D"/>
<stop offset="1" stop-color="#A45F9E"/>
</linearGradient>
</defs>
</svg>
