<svg width="28" height="28" viewBox="0 0 28 28" fill="none" xmlns="http://www.w3.org/2000/svg">
<path d="M23.3337 0.666626H4.66699C2.40033 0.666626 0.666992 2.39996 0.666992 4.66663V23.3333C0.666992 25.6 2.40033 27.3333 4.66699 27.3333H23.3337C25.6003 27.3333 27.3337 25.6 27.3337 23.3333V4.66663C27.3337 2.39996 25.6003 0.666626 23.3337 0.666626ZM8.66699 20.6666C8.66699 21.4666 8.13366 22 7.33366 22C6.53366 22 6.00033 21.4666 6.00033 20.6666V15.3333C6.00033 14.5333 6.53366 14 7.33366 14C8.13366 14 8.66699 14.5333 8.66699 15.3333V20.6666ZM15.3337 20.6666C15.3337 21.4666 14.8003 22 14.0003 22C13.2003 22 12.667 21.4666 12.667 20.6666V7.33329C12.667 6.53329 13.2003 5.99996 14.0003 5.99996C14.8003 5.99996 15.3337 6.53329 15.3337 7.33329V20.6666ZM22.0003 20.6666C22.0003 21.4666 21.467 22 20.667 22C19.867 22 19.3337 21.4666 19.3337 20.6666V12.6666C19.3337 11.8666 19.867 11.3333 20.667 11.3333C21.467 11.3333 22.0003 11.8666 22.0003 12.6666V20.6666Z" fill="url(#paint0_linear_589_30)"/>
<defs>
<linearGradient id="paint0_linear_589_30" x1="0.666992" y1="14" x2="27.3337" y2="14" gradientUnits="userSpaceOnUse">
<stop stop-color="#3E243C"/>
<stop offset="0.755" stop-color="#71416D"/>
<stop offset="1" stop-color="#A45F9E"/>
</linearGradient>
</defs>
</svg>
