<svg width="43" height="48" viewBox="0 0 43 48" fill="none" xmlns="http://www.w3.org/2000/svg">
<path d="M41.3233 34.99L35.6767 29.3433C35.4598 29.1246 35.2017 28.951 34.9173 28.8326C34.633 28.7141 34.328 28.6531 34.02 28.6531C33.712 28.6531 33.407 28.7141 33.1227 28.8326C32.8383 28.951 32.5802 29.1246 32.3633 29.3433L24.01 37.6967C23.7937 37.9147 23.6227 38.1733 23.5065 38.4575C23.3904 38.7418 23.3316 39.0462 23.3333 39.3533V45C23.3333 45.6188 23.5792 46.2123 24.0168 46.6499C24.4543 47.0875 25.0478 47.3333 25.6667 47.3333H31.3133C31.6204 47.3351 31.9248 47.2762 32.2091 47.1601C32.4934 47.044 32.752 46.8729 32.97 46.6567L41.3233 38.3033C41.542 38.0864 41.7156 37.8283 41.8341 37.544C41.9525 37.2597 42.0135 36.9547 42.0135 36.6467C42.0135 36.3386 41.9525 36.0336 41.8341 35.7493C41.7156 35.465 41.542 35.2069 41.3233 34.99ZM30.3333 42.6667H28V40.3333L34.02 34.3133L36.3533 36.6467L30.3333 42.6667ZM16.3333 42.6667H7C6.38116 42.6667 5.78767 42.4208 5.35008 41.9832C4.9125 41.5457 4.66667 40.9522 4.66667 40.3333V7.66666C4.66667 7.04782 4.9125 6.45433 5.35008 6.01674C5.78767 5.57916 6.38116 5.33332 7 5.33332H18.6667V12.3333C18.6667 14.1898 19.4042 15.9703 20.7169 17.2831C22.0297 18.5958 23.8102 19.3333 25.6667 19.3333H32.6667V21.6667C32.6667 22.2855 32.9125 22.879 33.3501 23.3166C33.7877 23.7542 34.3812 24 35 24C35.6188 24 36.2123 23.7542 36.6499 23.3166C37.0875 22.879 37.3333 22.2855 37.3333 21.6667V17C37.3333 17 37.3333 17 37.3333 16.86C37.309 16.6456 37.2621 16.4345 37.1933 16.23V16.02C37.0811 15.7801 36.9315 15.5595 36.75 15.3667L22.75 1.36666C22.5571 1.18516 22.3366 1.03551 22.0967 0.923323C22.027 0.91343 21.9563 0.91343 21.8867 0.923323L21.14 0.666656H7C5.14349 0.666656 3.36301 1.40415 2.05025 2.71691C0.737498 4.02966 0 5.81014 0 7.66666V40.3333C0 42.1898 0.737498 43.9703 2.05025 45.2831C3.36301 46.5958 5.14349 47.3333 7 47.3333H16.3333C16.9522 47.3333 17.5457 47.0875 17.9832 46.6499C18.4208 46.2123 18.6667 45.6188 18.6667 45C18.6667 44.3811 18.4208 43.7877 17.9832 43.3501C17.5457 42.9125 16.9522 42.6667 16.3333 42.6667ZM23.3333 8.62332L29.3767 14.6667H25.6667C25.0478 14.6667 24.4543 14.4208 24.0168 13.9832C23.5792 13.5457 23.3333 12.9522 23.3333 12.3333V8.62332ZM11.6667 28.6667H25.6667C26.2855 28.6667 26.879 28.4208 27.3166 27.9832C27.7542 27.5457 28 26.9522 28 26.3333C28 25.7145 27.7542 25.121 27.3166 24.6834C26.879 24.2458 26.2855 24 25.6667 24H11.6667C11.0478 24 10.4543 24.2458 10.0168 24.6834C9.57917 25.121 9.33333 25.7145 9.33333 26.3333C9.33333 26.9522 9.57917 27.5457 10.0168 27.9832C10.4543 28.4208 11.0478 28.6667 11.6667 28.6667ZM11.6667 19.3333H14C14.6188 19.3333 15.2123 19.0875 15.6499 18.6499C16.0875 18.2123 16.3333 17.6188 16.3333 17C16.3333 16.3812 16.0875 15.7877 15.6499 15.3501C15.2123 14.9125 14.6188 14.6667 14 14.6667H11.6667C11.0478 14.6667 10.4543 14.9125 10.0168 15.3501C9.57917 15.7877 9.33333 16.3812 9.33333 17C9.33333 17.6188 9.57917 18.2123 10.0168 18.6499C10.4543 19.0875 11.0478 19.3333 11.6667 19.3333ZM16.3333 33.3333H11.6667C11.0478 33.3333 10.4543 33.5792 10.0168 34.0167C9.57917 34.4543 9.33333 35.0478 9.33333 35.6667C9.33333 36.2855 9.57917 36.879 10.0168 37.3166C10.4543 37.7542 11.0478 38 11.6667 38H16.3333C16.9522 38 17.5457 37.7542 17.9832 37.3166C18.4208 36.879 18.6667 36.2855 18.6667 35.6667C18.6667 35.0478 18.4208 34.4543 17.9832 34.0167C17.5457 33.5792 16.9522 33.3333 16.3333 33.3333Z" fill="url(#paint0_linear_377_622)"/>
<defs>
<linearGradient id="paint0_linear_377_622" x1="0" y1="24" x2="42.0135" y2="24" gradientUnits="userSpaceOnUse">
<stop stop-color="#3E243C"/>
<stop offset="0.755" stop-color="#71416D"/>
<stop offset="1" stop-color="#A45F9E"/>
</linearGradient>
</defs>
</svg>
