<svg width="31" height="30" viewBox="0 0 31 30" fill="none" xmlns="http://www.w3.org/2000/svg">
<path d="M5.2251 10V21C5.2251 22.4001 5.2251 23.0997 5.49649 23.6345C5.73521 24.1049 6.11585 24.4881 6.58436 24.7278C7.11647 25 7.8134 25 9.20519 25H21.1647C22.5565 25 23.2524 25 23.7845 24.7278C24.253 24.4881 24.6349 24.1049 24.8737 23.6345C25.1448 23.1002 25.1448 22.4013 25.1448 21.0039V10M5.2251 10H25.1448M5.2251 10L6.92472 7.01361C7.34181 6.28075 7.55032 5.91438 7.8436 5.64758C8.10329 5.41134 8.41049 5.23257 8.74363 5.12339C9.12015 5 9.54048 5 10.3825 5H19.9869C20.829 5 21.2508 5 21.6274 5.12339C21.9605 5.23257 22.2663 5.41134 22.5259 5.64758C22.8195 5.9146 23.0285 6.28134 23.4463 7.01538L25.1448 10M15.1849 13.75V21.25M15.1849 21.25L18.9199 18.75M15.1849 21.25L11.45 18.75" stroke="white" stroke-width="2" stroke-linecap="round" stroke-linejoin="round"/>
</svg>
