<svg width="38" height="48" viewBox="0 0 38 48" fill="none" xmlns="http://www.w3.org/2000/svg">
<path d="M37.6663 16.86C37.642 16.6456 37.5951 16.4344 37.5263 16.23V16.02C37.4142 15.78 37.2645 15.5595 37.083 15.3666L23.083 1.36663C22.8901 1.18513 22.6696 1.03548 22.4297 0.923292H22.1963C21.9695 0.801966 21.7256 0.715444 21.473 0.666626H7.33301C5.47649 0.666626 3.69602 1.40412 2.38326 2.71688C1.07051 4.02963 0.333008 5.81011 0.333008 7.66663V40.3333C0.333008 42.1898 1.07051 43.9703 2.38326 45.283C3.69602 46.5958 5.47649 47.3333 7.33301 47.3333H30.6663C32.5229 47.3333 34.3033 46.5958 35.6161 45.283C36.9288 43.9703 37.6663 42.1898 37.6663 40.3333V17C37.6663 17 37.6663 17 37.6663 16.86ZM23.6663 8.62329L29.7097 14.6666H25.9997C25.3808 14.6666 24.7873 14.4208 24.3498 13.9832C23.9122 13.5456 23.6663 12.9521 23.6663 12.3333V8.62329ZM32.9997 40.3333C32.9997 40.9521 32.7538 41.5456 32.3163 41.9832C31.8787 42.4208 31.2852 42.6666 30.6663 42.6666H7.33301C6.71417 42.6666 6.12068 42.4208 5.68309 41.9832C5.24551 41.5456 4.99967 40.9521 4.99967 40.3333V7.66663C4.99967 7.04779 5.24551 6.4543 5.68309 6.01671C6.12068 5.57913 6.71417 5.33329 7.33301 5.33329H18.9997V12.3333C18.9997 14.1898 19.7372 15.9703 21.0499 17.283C22.3627 18.5958 24.1432 19.3333 25.9997 19.3333H32.9997V40.3333ZM22.0097 29.3433L21.333 30.0433V24C21.333 23.3811 21.0872 22.7876 20.6496 22.35C20.212 21.9125 19.6185 21.6666 18.9997 21.6666C18.3808 21.6666 17.7873 21.9125 17.3498 22.35C16.9122 22.7876 16.6663 23.3811 16.6663 24V30.0433L15.9897 29.3433C15.5503 28.9039 14.9544 28.6571 14.333 28.6571C13.7116 28.6571 13.1157 28.9039 12.6763 29.3433C12.237 29.7827 11.9901 30.3786 11.9901 31C11.9901 31.6213 12.237 32.2173 12.6763 32.6566L17.343 37.3233C17.5649 37.5357 17.8266 37.7022 18.113 37.8133C18.3923 37.9367 18.6943 38.0005 18.9997 38.0005C19.305 38.0005 19.607 37.9367 19.8863 37.8133C20.1728 37.7022 20.4344 37.5357 20.6563 37.3233L25.323 32.6566C25.7624 32.2173 26.0092 31.6213 26.0092 31C26.0092 30.3786 25.7624 29.7827 25.323 29.3433C24.8836 28.9039 24.2877 28.6571 23.6663 28.6571C23.045 28.6571 22.449 28.9039 22.0097 29.3433Z" fill="url(#paint0_linear_377_742)"/>
<defs>
<linearGradient id="paint0_linear_377_742" x1="0.333008" y1="24" x2="37.6663" y2="24" gradientUnits="userSpaceOnUse">
<stop stop-color="#3E243C"/>
<stop offset="0.755" stop-color="#71416D"/>
<stop offset="1" stop-color="#A45F9E"/>
</linearGradient>
</defs>
</svg>
