<svg width="48" height="48" viewBox="0 0 48 48" fill="none" xmlns="http://www.w3.org/2000/svg">
<path d="M45.0003 24C44.3815 24 43.788 24.2458 43.3504 24.6834C42.9128 25.121 42.667 25.7145 42.667 26.3333V40.3333C42.667 40.9522 42.4212 41.5457 41.9836 41.9832C41.546 42.4208 40.9525 42.6667 40.3337 42.6667H7.66699C7.04815 42.6667 6.45466 42.4208 6.01708 41.9832C5.57949 41.5457 5.33366 40.9522 5.33366 40.3333V7.66667C5.33366 7.04783 5.57949 6.45434 6.01708 6.01675C6.45466 5.57917 7.04815 5.33333 7.66699 5.33333H21.667C22.2858 5.33333 22.8793 5.0875 23.3169 4.64992C23.7545 4.21233 24.0003 3.61884 24.0003 3C24.0003 2.38116 23.7545 1.78767 23.3169 1.35008C22.8793 0.912499 22.2858 0.666667 21.667 0.666667H7.66699C5.81048 0.666667 4.03 1.40416 2.71724 2.71692C1.40449 4.02967 0.666992 5.81015 0.666992 7.66667V40.3333C0.666992 42.1898 1.40449 43.9703 2.71724 45.2831C4.03 46.5958 5.81048 47.3333 7.66699 47.3333H40.3337C42.1902 47.3333 43.9706 46.5958 45.2834 45.2831C46.5962 43.9703 47.3337 42.1898 47.3337 40.3333V26.3333C47.3337 25.7145 47.0878 25.121 46.6502 24.6834C46.2127 24.2458 45.6192 24 45.0003 24ZM10.0003 25.7733V35.6667C10.0003 36.2855 10.2462 36.879 10.6837 37.3166C11.1213 37.7542 11.7148 38 12.3337 38H22.227C22.5341 38.0018 22.8385 37.9429 23.1228 37.8268C23.4071 37.7107 23.6656 37.5396 23.8837 37.3233L40.0303 21.1533L46.657 14.6667C46.8757 14.4498 47.0493 14.1917 47.1677 13.9073C47.2862 13.623 47.3472 13.318 47.3472 13.01C47.3472 12.702 47.2862 12.397 47.1677 12.1127C47.0493 11.8283 46.8757 11.5702 46.657 11.3533L36.7637 1.34333C36.5467 1.12463 36.2887 0.951047 36.0043 0.832587C35.72 0.714126 35.415 0.653137 35.107 0.653137C34.799 0.653137 34.494 0.714126 34.2096 0.832587C33.9253 0.951047 33.6672 1.12463 33.4503 1.34333L26.8703 7.94667L10.677 24.1167C10.4607 24.3347 10.2896 24.5933 10.1735 24.8776C10.0574 25.1618 9.99855 25.4663 10.0003 25.7733ZM35.107 6.29L41.7103 12.8933L38.397 16.2067L31.7937 9.60333L35.107 6.29ZM14.667 26.73L28.5037 12.8933L35.107 19.4967L21.2703 33.3333H14.667V26.73Z" fill="url(#paint0_linear_377_604)"/>
<defs>
<linearGradient id="paint0_linear_377_604" x1="0.666992" y1="23.9932" x2="47.3472" y2="23.9932" gradientUnits="userSpaceOnUse">
<stop stop-color="#3E243C"/>
<stop offset="0.755" stop-color="#71416D"/>
<stop offset="1" stop-color="#A45F9E"/>
</linearGradient>
</defs>
</svg>
