<svg width="20" height="20" viewBox="0 0 20 20" fill="none" xmlns="http://www.w3.org/2000/svg">
<path d="M4.79462 5.79426H3.79545C3.26546 5.79426 2.75718 6.0048 2.38242 6.37956C2.00766 6.75432 1.79712 7.2626 1.79712 7.79259V16.7851C1.79712 17.3151 2.00766 17.8234 2.38242 18.1981C2.75718 18.5729 3.26546 18.7834 3.79545 18.7834H12.788C13.3179 18.7834 13.8262 18.5729 14.201 18.1981C14.5757 17.8234 14.7863 17.3151 14.7863 16.7851V15.7859M13.7871 3.79593L16.7846 6.79343M18.1685 5.3796C18.562 4.98609 18.7831 4.45236 18.7831 3.89584C18.7831 3.33932 18.562 2.8056 18.1685 2.41208C17.7749 2.01856 17.2412 1.79749 16.6847 1.79749C16.1282 1.79749 15.5945 2.01856 15.2009 2.41208L6.79295 10.7901V13.7876H9.79045L18.1685 5.3796Z" stroke="#01010E" stroke-width="1.65" stroke-linecap="round" stroke-linejoin="round"/>
</svg>
