<svg width="393" height="349" viewBox="0 0 393 349" fill="none" xmlns="http://www.w3.org/2000/svg">
<path d="M293.052 135.445C290.993 135.895 288.975 136.54 286.934 137.088C280.154 138.907 273.307 140.426 266.364 141.432C261.063 142.205 255.749 142.96 250.418 143.463C244.698 144.007 238.951 144.316 233.209 144.611C222.423 145.168 211.619 145.137 200.823 144.973C194.158 144.876 187.493 144.558 180.836 144.201C176.295 143.958 171.755 143.574 167.236 143.075C154.74 141.711 142.412 139.441 130.367 135.772C128.096 135.079 126.003 135.238 124.068 136.748C123.538 137.158 123.251 137.591 123.317 138.253C123.485 139.905 123.622 141.556 123.816 143.203C124.276 147.164 124.744 151.12 125.234 155.076C125.751 159.204 126.299 163.333 126.824 167.461C127.275 170.993 127.716 174.53 128.167 178.062C128.715 182.403 129.254 186.743 129.819 191.079C130.38 195.379 130.941 199.684 131.55 203.976C132.253 208.899 132.924 213.831 133.759 218.728C134.863 225.192 136.025 231.652 137.31 238.081C141.714 260.065 148.587 281.25 158.247 301.499C162.439 310.281 167.377 318.617 173.451 326.247C177.483 331.316 181.874 336.045 186.954 340.089C191.737 343.891 197.047 346.668 203.041 348.015C204.516 348.346 206.027 348.527 207.52 348.783C207.824 348.836 208.125 348.929 208.429 348.999H212.877C213.951 348.823 215.024 348.637 216.097 348.461C222.083 347.476 227.485 345.078 232.445 341.634C239.561 336.689 245.48 330.53 250.581 323.562C255.771 316.476 259.959 308.806 263.7 300.881C272.146 282.989 278.586 264.414 282.8 245.066C284.646 236.588 286.333 228.084 287.645 219.51C287.658 219.421 287.672 219.337 287.685 219.249C288.86 211.566 289.982 203.87 291.028 196.165C292.084 188.377 293.012 180.566 294.01 172.764C294.743 166.993 295.516 161.227 296.236 155.451C296.263 155.239 296.289 155.032 296.316 154.82C296.815 150.797 297.27 146.766 297.742 142.739C297.835 141.945 297.919 141.145 298.007 140.351V138.019C297.049 135.904 295.344 134.946 293.052 135.445ZM198.416 189.401H193.871V191.852H197.696C197.877 193.145 197.612 193.485 196.49 193.507C195.651 193.525 194.807 193.512 193.884 193.512V196.223H198.412V197.874C196.229 197.923 194.039 197.901 191.777 197.887V187.829H198.416V189.401ZM209.679 197.834C209.401 197.786 209.11 197.45 208.942 197.172C208.421 196.302 207.952 195.402 207.36 194.333C206.91 195.128 206.534 195.781 206.172 196.439C205.276 198.064 205.231 198.091 203.12 197.786C203.999 196.073 205.055 194.51 206.013 192.77C205.05 191.127 204.118 189.529 203.089 187.767C203.787 187.767 204.273 187.785 204.754 187.763C205.236 187.741 205.541 187.944 205.762 188.372C206.234 189.277 206.738 190.16 207.281 191.154C207.462 190.929 207.63 190.774 207.736 190.584C208.133 189.878 208.535 189.176 208.889 188.447C209.141 187.935 209.503 187.719 210.064 187.763C210.51 187.794 210.956 187.767 211.601 187.767C210.572 189.538 209.644 191.141 208.69 192.783C209.649 194.417 210.607 196.046 211.672 197.865C210.899 197.865 210.276 197.936 209.679 197.834ZM219.004 197.83H217.06V196.731C217.06 194.302 217.056 191.869 217.06 189.441C217.06 187.82 217.259 187.653 219.004 187.856V197.83ZM232.922 197.843C232.343 197.856 231.756 197.932 231.186 197.852C230.943 197.821 230.691 197.499 230.537 197.247C229.565 195.693 228.624 194.125 227.67 192.562C227.467 192.231 227.259 191.909 226.937 191.406C226.716 192.615 226.849 193.649 226.822 194.669C226.8 195.684 226.818 196.7 226.818 197.808H224.83C224.799 197.574 224.742 197.344 224.742 197.11C224.733 194.505 224.728 191.896 224.737 189.286C224.742 188.063 225.161 187.71 226.336 187.754C226.826 187.776 226.994 188.076 227.198 188.408C228.165 190.002 229.137 191.595 230.108 193.189C230.294 193.49 230.488 193.781 230.674 194.077C230.753 194.068 230.833 194.059 230.912 194.05V187.834H232.922V197.843Z" fill="#3E243C"/>
<path d="M212.92 0C224.999 0.379986 236.743 2.46991 247.965 7.08719C264.014 13.6972 276.358 24.624 285.306 39.4391C290.279 47.6706 294.099 56.4103 296.396 65.7774C297.16 68.8968 297.769 72.0516 297.822 75.2859C297.827 75.6261 297.946 75.9664 298.008 76.3066V81.6043C297.941 81.9048 297.831 82.2052 297.822 82.5101C297.57 88.3645 295.901 93.8346 293.194 98.9865C288.446 108.018 281.389 114.738 272.401 119.47C271.248 120.076 270.065 120.619 268.793 121.079C268.969 120.911 269.155 120.747 269.327 120.575C270.59 119.347 271.964 118.211 273.09 116.864C276.667 112.6 277.643 107.744 276.084 102.384C275.153 99.1941 273.563 96.3354 271.703 93.6136C268.462 88.8638 264.434 84.896 259.739 81.5955C259.54 81.4585 259.333 81.3348 258.926 81.0785C259.121 81.5999 259.236 81.918 259.355 82.2317C260.349 84.8519 260.839 87.5294 260.313 90.3263C259.474 94.811 255.34 98.4563 250.787 98.5402C245.637 98.633 240.483 98.6462 235.334 98.5314C232.415 98.4695 230.37 96.817 229.252 94.1571C227.671 90.4014 227.715 86.5883 229.177 82.8017C231.032 77.9944 234.269 74.5657 239.22 72.8911C239.415 72.8248 239.6 72.7365 240.006 72.5686C230.224 69.9087 220.459 68.888 210.566 68.7996C200.647 68.7113 190.878 69.6966 181.139 72.5553C181.55 72.7188 181.775 72.8116 182.001 72.8911C187.892 74.9324 191.262 79.2183 192.75 85.1214C193.532 88.232 193.21 91.2984 191.942 94.2411C190.732 97.0512 188.55 98.5269 185.503 98.5579C180.632 98.6065 175.765 98.6065 170.893 98.5579C165.019 98.5049 160.462 93.596 160.722 87.715C160.815 85.6472 161.265 83.6721 162.135 81.5778C161.835 81.7103 161.689 81.7457 161.575 81.8296C157.269 84.8872 153.263 88.2806 150.017 92.4825C147.504 95.7345 145.671 99.3179 144.854 103.387C143.6 109.644 145.194 114.986 149.911 119.338C150.162 119.568 150.405 119.806 150.586 120.151C150.467 120.102 150.348 120.062 150.233 120.009C144.103 117.076 138.507 113.382 133.861 108.358C128.566 102.632 125.32 95.8936 123.942 88.2231C122.856 82.1787 123.006 76.1387 123.876 70.0898C125.669 57.6519 130.69 46.5837 137.977 36.4522C144.324 27.633 151.752 19.9184 160.78 13.8165C169.449 7.95762 178.931 4.05172 189.151 1.87784" fill="#3E243C"/>
<path d="M193.027 113.187C205.118 118.269 216.734 117.528 227.903 110.301C228.793 111.802 229.671 113.284 230.549 114.767C219.867 120.924 203.589 120.578 193.027 113.187Z" fill="#3E243C"/>
<path d="M311.294 150.75C310.391 158.483 309.433 166.214 308.401 173.935C307.355 181.738 306.179 189.53 305.074 197.331C304.252 203.1 303.469 208.876 302.632 214.646C302.602 214.857 302.572 215.065 302.542 215.277C314.035 234.844 347.054 288.454 360.694 282.939C376.469 276.561 330.305 186.405 311.294 150.75Z" fill="#3E243C"/>
<path d="M118.436 151.729C114.732 158.578 111.074 165.456 107.484 172.368C103.857 179.357 100.343 186.409 96.7649 193.429C94.1235 198.624 91.4462 203.801 88.8158 209.004C88.7192 209.195 88.6241 209.381 88.5275 209.572C67.8784 218.985 10.0517 243.894 2.05679 231.544C-7.19085 217.26 82.3912 169.99 118.436 151.729Z" fill="#3E243C"/>
</svg>
