<svg width="392" height="387" viewBox="0 0 392 387" fill="none" xmlns="http://www.w3.org/2000/svg">
<path d="M286.931 150.193C284.648 150.692 282.41 151.407 280.147 152.014C272.629 154.032 265.037 155.716 257.337 156.832C251.46 157.689 245.567 158.526 239.655 159.084C233.312 159.687 226.94 160.029 220.573 160.357C208.612 160.974 196.631 160.94 184.661 160.759C177.27 160.651 169.878 160.299 162.497 159.902C157.462 159.633 152.427 159.207 147.416 158.654C133.56 157.141 119.89 154.624 106.533 150.555C104.015 149.787 101.693 149.963 99.5482 151.637C98.9604 152.093 98.642 152.573 98.7155 153.307C98.9016 155.138 99.0535 156.969 99.269 158.796C99.7784 163.187 100.298 167.574 100.841 171.961C101.414 176.539 102.022 181.117 102.605 185.695C103.104 189.612 103.594 193.534 104.094 197.451C104.701 202.264 105.298 207.076 105.925 211.884C106.547 216.653 107.169 221.427 107.845 226.186C108.624 231.645 109.369 237.114 110.294 242.544C111.519 249.712 112.807 256.875 114.232 264.004C119.116 288.382 126.737 311.874 137.449 334.327C142.097 344.066 147.573 353.31 154.308 361.77C158.78 367.391 163.648 372.635 169.281 377.12C174.585 381.335 180.473 384.415 187.119 385.908C188.755 386.275 190.43 386.476 192.086 386.76C192.424 386.819 192.757 386.922 193.095 387H198.027C199.217 386.804 200.408 386.598 201.598 386.403C208.235 385.311 214.225 382.652 219.725 378.833C227.616 373.35 234.179 366.519 239.837 358.793C245.592 350.935 250.235 342.43 254.384 333.642C263.749 313.803 270.89 293.205 275.563 271.75C277.61 262.349 279.481 252.919 280.936 243.411C280.95 243.313 280.965 243.22 280.98 243.122C282.283 234.603 283.527 226.069 284.688 217.525C285.858 208.888 286.887 200.227 287.994 191.575C288.807 185.176 289.664 178.782 290.462 172.377C290.492 172.142 290.521 171.912 290.55 171.677C291.104 167.217 291.608 162.747 292.132 158.281C292.235 157.4 292.328 156.514 292.426 155.633V153.047C291.363 150.702 289.473 149.64 286.931 150.193ZM181.991 210.024H176.951V212.741H181.193C181.394 214.176 181.1 214.553 179.856 214.577C178.925 214.597 177.99 214.582 176.966 214.582V217.588H181.986V219.42C179.567 219.473 177.137 219.449 174.63 219.434V208.281H181.991V210.024ZM194.481 219.376C194.173 219.322 193.849 218.95 193.663 218.641C193.085 217.677 192.566 216.678 191.91 215.493C191.41 216.374 190.994 217.099 190.592 217.828C189.598 219.63 189.549 219.66 187.208 219.322C188.182 217.422 189.353 215.689 190.416 213.76C189.348 211.938 188.315 210.166 187.173 208.212C187.947 208.212 188.486 208.232 189.02 208.207C189.554 208.183 189.892 208.408 190.137 208.883C190.661 209.887 191.219 210.866 191.822 211.968C192.022 211.718 192.208 211.547 192.326 211.336C192.767 210.553 193.213 209.774 193.604 208.966C193.884 208.398 194.285 208.158 194.907 208.207C195.402 208.242 195.897 208.212 196.612 208.212C195.471 210.176 194.442 211.953 193.384 213.774C194.447 215.586 195.51 217.393 196.69 219.41C195.833 219.41 195.142 219.488 194.481 219.376ZM204.821 219.371H202.666V218.151C202.666 215.459 202.661 212.761 202.666 210.068C202.666 208.271 202.886 208.085 204.821 208.31V219.371ZM220.254 219.385C219.613 219.4 218.961 219.483 218.329 219.395C218.06 219.361 217.781 219.003 217.609 218.724C216.532 217.001 215.489 215.263 214.431 213.53C214.205 213.162 213.975 212.805 213.618 212.247C213.373 213.588 213.52 214.734 213.49 215.865C213.466 216.991 213.485 218.117 213.485 219.346H211.281C211.247 219.087 211.183 218.832 211.183 218.573C211.173 215.684 211.169 212.79 211.178 209.897C211.183 208.54 211.649 208.149 212.951 208.198C213.495 208.222 213.681 208.555 213.907 208.922C214.979 210.69 216.057 212.457 217.134 214.225C217.34 214.558 217.556 214.881 217.761 215.209C217.849 215.199 217.938 215.189 218.026 215.18V208.286H220.254V219.385Z" fill="#3E243C"/>
<path d="M198.075 0C211.469 0.421361 224.491 2.73885 236.935 7.85887C254.732 15.1886 268.42 27.3052 278.342 43.7334C283.856 52.8612 288.092 62.5525 290.639 72.9396C291.486 76.3986 292.162 79.8969 292.221 83.4834C292.226 83.8607 292.358 84.2379 292.426 84.6152V90.4897C292.353 90.8229 292.231 91.1561 292.221 91.4942C291.942 97.9861 290.09 104.052 287.088 109.765C281.824 119.779 273.998 127.231 264.032 132.479C262.754 133.15 261.441 133.753 260.031 134.262C260.227 134.076 260.432 133.895 260.623 133.704C262.024 132.342 263.547 131.082 264.796 129.588C268.763 124.86 269.845 119.475 268.116 113.532C267.083 109.995 265.32 106.825 263.258 103.807C259.663 98.5397 255.197 94.1399 249.991 90.4799C249.771 90.3281 249.541 90.1909 249.09 89.9067C249.306 90.4848 249.433 90.8376 249.565 91.1855C250.667 94.0909 251.211 97.06 250.628 100.161C249.697 105.134 245.113 109.177 240.064 109.27C234.354 109.373 228.639 109.387 222.929 109.26C219.691 109.191 217.424 107.359 216.185 104.409C214.432 100.245 214.481 96.0164 216.102 91.8175C218.159 86.4868 221.748 82.6848 227.238 80.8278C227.454 80.7543 227.659 80.6563 228.11 80.4702C217.262 77.5206 206.434 76.3888 195.464 76.2909C184.465 76.1929 173.632 77.2855 162.834 80.4555C163.289 80.6368 163.539 80.7396 163.788 80.8278C170.322 83.0914 174.058 87.844 175.709 94.3898C176.575 97.8391 176.218 101.239 174.812 104.502C173.47 107.619 171.051 109.255 167.672 109.289C162.27 109.343 156.873 109.343 151.472 109.289C144.958 109.231 139.904 103.787 140.193 97.2658C140.296 94.9728 140.796 92.7827 141.76 90.4603C141.427 90.6073 141.266 90.6465 141.138 90.7396C136.363 94.1301 131.922 97.893 128.322 102.552C125.536 106.158 123.503 110.132 122.597 114.645C121.206 121.582 122.974 127.506 128.205 132.332C128.484 132.587 128.753 132.851 128.954 133.233C128.822 133.179 128.689 133.135 128.562 133.077C121.765 129.823 115.56 125.727 110.408 120.157C104.536 113.807 100.936 106.335 99.4083 97.8293C98.2035 91.1267 98.3701 84.429 99.3348 77.7215C101.323 63.9293 106.891 51.6559 114.972 40.4213C122.009 30.6418 130.247 22.0872 140.257 15.3209C149.87 8.82408 160.385 4.49288 171.717 2.08231" fill="#3E243C"/>
<path d="M176.017 125.511C189.423 131.147 202.305 130.325 214.689 122.312C215.677 123.975 216.65 125.619 217.623 127.263C205.779 134.091 187.728 133.707 176.017 125.511Z" fill="#3E243C"/>
<path d="M297.59 231.197C298.892 222.662 300.135 214.113 301.296 205.554C302.466 196.902 303.494 188.225 304.6 179.558C305.413 173.148 306.269 166.742 307.067 160.326C307.097 160.091 307.126 159.86 307.155 159.625C325.185 142.07 376.22 94.4246 389.188 104.323C404.188 115.771 328.377 198.643 297.59 231.197Z" fill="#3E243C"/>
<path d="M93.541 231.197C92.2388 222.662 90.9954 214.113 89.8352 205.554C88.6652 196.902 87.6371 188.225 86.5308 179.558C85.7181 173.148 84.8614 166.742 84.0635 160.326C84.0341 160.091 84.0047 159.86 83.9754 159.625C65.9455 142.07 14.9108 94.4246 1.94283 104.323C-13.0567 115.771 62.7537 198.643 93.541 231.197Z" fill="#3E243C"/>
</svg>
