<svg width="65" height="135" viewBox="0 0 65 135" fill="none" xmlns="http://www.w3.org/2000/svg">
<path d="M62.74 52.0289C61.9799 52.202 61.2344 52.4496 60.4808 52.6599C57.9769 53.3588 55.4485 53.9423 52.8842 54.329C50.9267 54.6258 48.9643 54.9159 46.9954 55.1092C44.883 55.3179 42.7608 55.4366 40.6402 55.5502C36.6567 55.764 32.6668 55.7521 28.68 55.6893C26.2185 55.652 23.757 55.5299 21.2988 55.3925C19.6219 55.2992 17.945 55.1516 16.2762 54.96C11.6615 54.4358 7.10873 53.564 2.66038 52.1545C1.82193 51.8882 1.04873 51.9492 0.33425 52.5293C0.138503 52.6871 0.0324736 52.8533 0.056942 53.1077C0.118929 53.7421 0.169497 54.3765 0.24127 55.0092C0.410918 56.5306 0.583828 58.0504 0.764894 59.5702C0.955747 61.1562 1.15802 62.7421 1.35213 64.3281C1.51852 65.685 1.68164 67.0437 1.84803 68.4006C2.0503 70.068 2.24931 71.7354 2.45811 73.401C2.66527 75.0531 2.87244 76.7069 3.09755 78.3556C3.35691 80.2469 3.60486 82.1415 3.91316 84.0226C4.32096 86.5059 4.74998 88.9874 5.22466 91.457C6.85099 99.9024 9.38918 108.041 12.9567 115.82C14.5047 119.193 16.3284 122.396 18.5713 125.327C20.0607 127.274 21.6821 129.091 23.558 130.644C25.3246 132.105 27.2854 133.172 29.4989 133.689C30.0438 133.816 30.6016 133.886 31.153 133.984C31.2655 134.004 31.3765 134.04 31.489 134.067H33.1317C33.528 133.999 33.9244 133.928 34.3208 133.86C36.5311 133.482 38.5261 132.561 40.358 131.238C42.9859 129.338 45.1717 126.972 47.0558 124.295C48.9725 121.573 50.5189 118.627 51.9005 115.582C55.0194 108.709 57.3978 101.573 58.954 94.1404C59.6358 90.8837 60.2589 87.6169 60.7434 84.3228C60.7483 84.2889 60.7532 84.2567 60.7581 84.2228C61.192 81.2714 61.6063 78.3149 61.9929 75.355C62.3828 72.363 62.7253 69.3624 63.094 66.3652C63.3648 64.1483 63.6503 61.933 63.9161 59.7144C63.9259 59.633 63.9357 59.5533 63.9455 59.4719C64.1298 57.9266 64.2979 56.378 64.4724 54.8311C64.5066 54.5257 64.5376 54.2187 64.5703 53.9134V53.0178C64.2163 52.2053 63.5866 51.8373 62.74 52.0289ZM27.791 72.7565H26.1125V73.6979H27.5251C27.592 74.1949 27.4941 74.3255 27.0798 74.3339C26.7699 74.3407 26.4583 74.3356 26.1174 74.3356V75.3771H27.7894V76.0115C26.9836 76.0301 26.1745 76.0217 25.3393 76.0166V72.1526H27.791V72.7565ZM31.9507 75.9962C31.8479 75.9776 31.7402 75.8486 31.6782 75.7418C31.4858 75.4076 31.3128 75.0616 31.0943 74.6511C30.9279 74.9564 30.7892 75.2075 30.6555 75.4602C30.3243 76.0844 30.308 76.0946 29.5283 75.9776C29.8529 75.3194 30.2428 74.719 30.5967 74.0507C30.2411 73.4197 29.8969 72.8057 29.5169 72.1289C29.7746 72.1289 29.954 72.1357 30.1318 72.1272C30.3096 72.1187 30.4222 72.1967 30.5038 72.3613C30.6783 72.709 30.8643 73.0482 31.0649 73.4299C31.1318 73.3434 31.1938 73.284 31.2329 73.2111C31.3797 72.9397 31.5282 72.67 31.6587 72.3901C31.7516 72.1933 31.8854 72.1102 32.0926 72.1272C32.2573 72.1391 32.4221 72.1289 32.6602 72.1289C32.2802 72.8091 31.9376 73.4248 31.5853 74.0558C31.9392 74.6834 32.2932 75.3093 32.6863 76.0081C32.4009 76.0081 32.1709 76.0352 31.9507 75.9962ZM35.3942 75.9945H34.6764V75.5722C34.6764 74.6393 34.6748 73.7046 34.6764 72.7717C34.6764 72.1492 34.7498 72.0848 35.3942 72.1628V75.9945ZM40.5342 75.9996C40.3205 76.0047 40.1035 76.0335 39.8931 76.003C39.8034 75.9911 39.7104 75.8673 39.6533 75.7706C39.2944 75.1736 38.947 74.5714 38.5946 73.971C38.5196 73.8437 38.4429 73.7199 38.3238 73.5265C38.2423 73.9913 38.2912 74.3882 38.2814 74.78C38.2733 75.1702 38.2798 75.5603 38.2798 75.986H37.5458C37.5343 75.8961 37.5131 75.8079 37.5131 75.718C37.5099 74.7173 37.5082 73.7148 37.5115 72.7124C37.5131 72.2425 37.6681 72.1068 38.102 72.1238C38.2831 72.1323 38.3451 72.2476 38.4201 72.3748C38.7773 72.9872 39.1362 73.5995 39.4951 74.2118C39.5636 74.3272 39.6354 74.4391 39.7039 74.5527C39.7332 74.5494 39.7626 74.546 39.792 74.5426V72.1543H40.5342V75.9996Z" fill="#3E243C"/>
<path d="M33.1431 0C37.6039 0.145974 41.9407 0.948833 46.0851 2.72259C52.0121 5.26186 56.5708 9.45947 59.8752 15.1508C61.7117 18.313 63.1225 21.6704 63.9706 25.2688C64.2528 26.4672 64.4779 27.6791 64.4974 28.9216C64.4991 29.0523 64.5431 29.183 64.5659 29.3137V31.3488C64.5415 31.4643 64.5007 31.5797 64.4974 31.6968C64.4045 33.9458 63.788 36.0472 62.7882 38.0263C61.0348 41.4957 58.4285 44.0775 55.1094 45.8953C54.6837 46.1279 54.2466 46.3367 53.7769 46.5132C53.8421 46.4487 53.9106 46.3859 53.9742 46.3197C54.4407 45.8478 54.9479 45.4116 55.3638 44.8939C56.6849 43.2559 57.0454 41.3905 56.4697 39.3316C56.1255 38.1061 55.5383 37.0079 54.8517 35.9623C53.6545 34.1376 52.1671 32.6134 50.4333 31.3454C50.3599 31.2928 50.2833 31.2453 50.1332 31.1468C50.205 31.3471 50.2474 31.4693 50.2914 31.5899C50.6584 32.5964 50.8394 33.625 50.6453 34.6994C50.3355 36.4223 48.8088 37.8226 47.1273 37.8549C45.2255 37.8905 43.3222 37.8956 41.4204 37.8515C40.3423 37.8277 39.5872 37.1929 39.1745 36.1711C38.5906 34.7283 38.6069 33.2635 39.1468 31.8088C39.8318 29.9621 41.0273 28.6449 42.8557 28.0016C42.9274 27.9761 42.996 27.9422 43.146 27.8777C39.5333 26.8559 35.9272 26.4638 32.2738 26.4298C28.6105 26.3959 25.0028 26.7744 21.4064 27.8726C21.5581 27.9354 21.6413 27.9711 21.7244 28.0016C23.9002 28.7858 25.1447 30.4322 25.6943 32.6999C25.983 33.8949 25.8639 35.0729 25.3958 36.2033C24.9489 37.2829 24.1432 37.8498 23.0178 37.8617C21.2188 37.8803 19.4215 37.8803 17.6225 37.8617C15.4532 37.8413 13.7701 35.9555 13.8663 33.6963C13.9005 32.9019 14.0669 32.1432 14.3882 31.3386C14.2773 31.3896 14.2235 31.4031 14.1811 31.4354C12.5908 32.61 11.1115 33.9136 9.91273 35.5278C8.9847 36.777 8.30783 38.1536 8.00609 39.7169C7.54289 42.1204 8.13168 44.1725 9.87359 45.8444C9.96656 45.9327 10.0563 46.0243 10.1231 46.1567C10.0791 46.1381 10.0351 46.1228 9.99265 46.1024C7.72883 44.9754 5.66235 43.5564 3.94653 41.6264C1.99096 39.4266 0.792179 36.8381 0.283307 33.8915C-0.117919 31.5695 -0.0624653 29.2492 0.258842 26.9255C0.921028 22.1474 2.77548 17.8954 5.46663 14.0033C7.81038 10.6154 10.5537 7.65177 13.8875 5.30769C17.0891 3.05697 20.5909 1.55649 24.365 0.721385" fill="#3E243C"/>
<path d="M25.7961 43.4815C30.2612 45.434 34.551 45.1492 38.6756 42.373C39.0046 42.9494 39.3287 43.519 39.6528 44.0885C35.7082 46.4537 29.6965 46.3207 25.7961 43.4815Z" fill="#3E243C"/>
</svg>
