<svg width="1314" height="2623" viewBox="0 0 1314 2623" fill="none" xmlns="http://www.w3.org/2000/svg">
<path d="M674.184 2622.97H640.754C638.463 2622.4 636.206 2621.74 633.882 2621.34C622.661 2619.42 611.308 2618.06 600.22 2615.57C555.171 2605.44 515.267 2584.57 479.348 2556C441.17 2525.63 408.172 2490.06 377.863 2451.99C332.216 2394.65 295.101 2331.99 263.597 2265.99C190.994 2113.8 139.338 1954.57 106.241 1789.34C96.58 1741.02 87.8159 1692.51 79.5497 1643.92C73.2754 1607.09 68.1961 1570.05 62.9509 1533.05C58.3697 1500.76 54.1536 1468.44 49.9375 1436.11C45.6882 1403.53 41.6381 1370.9 37.5216 1338.28C34.1687 1311.73 30.8489 1285.15 27.4628 1258.6C23.5123 1227.58 19.3626 1196.58 15.5117 1165.52C11.8267 1135.78 8.30779 1106.05 4.82205 1076.28C3.39455 1063.9 2.33223 1051.49 1.07073 1039.08C0.572762 1034.1 2.7306 1030.85 6.71431 1027.73C21.2548 1016.42 36.9573 1015.22 54.054 1020.43C144.584 1048.01 237.205 1065.07 331.121 1075.32C365.115 1079.04 399.209 1081.92 433.336 1083.78C483.364 1086.47 533.46 1088.83 583.555 1089.59C664.689 1090.78 745.891 1091.05 826.959 1086.87C870.116 1084.64 913.306 1082.32 956.297 1078.24C996.366 1074.42 1036.27 1068.78 1076.14 1062.97C1128.33 1055.38 1179.78 1043.96 1230.74 1030.32C1246.08 1026.2 1261.25 1021.36 1276.75 1017.97C1293.95 1014.22 1306.76 1021.43 1314 1037.29V1054.81C1313.34 1060.78 1312.71 1066.79 1312.01 1072.76C1308.26 1104.62 1304.67 1136.48 1300.69 1168.31C1295.28 1211.71 1289.47 1255.05 1283.96 1298.43C1276.49 1357.07 1269.48 1415.74 1261.55 1474.31C1253.58 1532.85 1245.05 1591.36 1236.12 1649.76C1226.26 1714.21 1213.58 1778.13 1199.7 1841.84C1168.03 1987.23 1119.63 2126.84 1056.15 2261.31C1028.04 2320.88 996.565 2378.52 957.591 2431.78C919.248 2484.18 874.763 2530.45 821.282 2567.61C784.001 2593.5 743.434 2611.52 698.418 2618.92C690.351 2620.25 682.284 2621.64 674.217 2623L674.184 2622.97ZM809.729 1458.35C809.132 1458.42 808.534 1458.48 807.937 1458.55C806.509 1456.32 805.049 1454.13 803.687 1451.88C796.384 1439.9 789.081 1427.92 781.81 1415.94C780.283 1413.45 779.022 1411.19 775.337 1411.03C766.506 1410.69 763.352 1413.35 763.319 1422.54C763.253 1442.15 763.286 1461.73 763.319 1481.35C763.319 1483.11 763.751 1484.83 763.983 1486.59H778.922C778.922 1478.26 778.789 1470.63 778.955 1462.99C779.121 1455.33 778.159 1447.56 779.818 1438.47C782.209 1442.25 783.802 1444.68 785.296 1447.13C792.467 1458.88 799.571 1470.69 806.841 1482.38C808.003 1484.23 809.895 1486.66 811.754 1486.92C816.004 1487.52 820.419 1486.92 824.768 1486.86V1411.62H809.696V1458.35H809.729ZM515.599 1487.22C532.563 1487.32 549.029 1487.49 565.462 1487.12V1474.71H531.434V1454.33C538.373 1454.33 544.714 1454.43 551.021 1454.33C559.453 1454.17 561.445 1451.61 560.051 1441.89H531.302V1423.47H565.462V1411.66H515.566V1487.25L515.599 1487.22ZM622.562 1448.76C615.391 1461.83 607.457 1473.58 600.817 1486.46C616.686 1488.75 617.018 1488.58 623.79 1476.34C626.512 1471.39 629.334 1466.51 632.72 1460.51C637.135 1468.54 640.654 1475.34 644.605 1481.84C645.866 1483.93 648.057 1486.46 650.149 1486.82C654.631 1487.59 659.311 1487.05 665.121 1487.05C657.12 1473.42 649.916 1461.14 642.713 1448.89C649.883 1436.55 656.888 1424.5 664.623 1411.19C659.776 1411.19 656.39 1411.39 653.07 1411.16C648.821 1410.86 646.132 1412.45 644.24 1416.3C641.584 1421.78 638.563 1427.05 635.575 1432.36C634.778 1433.79 633.55 1434.95 632.156 1436.65C628.073 1429.21 624.255 1422.54 620.736 1415.74C619.076 1412.52 616.785 1411.03 613.167 1411.19C609.548 1411.36 605.897 1411.23 600.651 1411.23C608.386 1424.47 615.391 1436.48 622.628 1448.82L622.562 1448.76ZM720.196 1486.79V1411.82C707.083 1410.3 705.589 1411.52 705.589 1423.74C705.589 1441.99 705.589 1460.27 705.589 1478.53V1486.79H720.196Z" fill="white"/>
<path d="M1314 613.473C1313.5 615.73 1312.67 617.987 1312.61 620.277C1310.71 664.255 1298.17 705.345 1277.82 744.046C1242.14 811.888 1189.09 862.371 1121.55 897.919C1112.88 902.466 1103.99 906.548 1094.43 910C1095.76 908.739 1097.15 907.511 1098.44 906.216C1107.94 896.989 1118.26 888.459 1126.73 878.336C1153.61 846.307 1160.95 809.83 1149.23 769.57C1142.23 745.606 1130.28 724.131 1116.3 703.686C1091.94 668.006 1061.67 638.2 1026.38 613.407C1024.89 612.378 1023.33 611.449 1020.28 609.523C1021.74 613.44 1022.6 615.83 1023.5 618.186C1030.96 637.868 1034.65 657.982 1030.7 678.992C1024.39 712.681 993.323 740.063 959.101 740.694C920.398 741.391 881.662 741.49 842.959 740.627C821.018 740.163 805.65 727.749 797.252 707.768C785.369 679.556 785.701 650.912 796.688 622.468C810.629 586.356 834.959 560.6 872.168 548.021C873.629 547.523 875.023 546.859 878.077 545.598C804.554 525.617 731.165 517.95 656.812 517.286C582.261 516.622 508.838 524.024 435.648 545.498C438.735 546.727 440.428 547.423 442.12 548.021C486.4 563.355 511.726 595.55 522.912 639.893C528.787 663.259 526.364 686.294 516.838 708.399C507.743 729.508 491.346 740.594 468.442 740.826C431.831 741.191 395.252 741.191 358.64 740.826C314.493 740.428 280.238 703.553 282.197 659.376C282.894 643.843 286.279 629.007 292.818 613.274C290.561 614.27 289.466 614.535 288.603 615.166C256.24 638.134 226.134 663.625 201.737 695.189C182.85 719.617 169.075 746.535 162.934 777.104C153.508 824.102 165.49 864.23 200.94 896.923C202.832 898.649 204.658 900.441 206.019 903.03C205.123 902.665 204.226 902.366 203.363 901.968C157.292 879.929 115.236 852.182 80.3171 814.444C40.5187 771.428 16.1219 720.812 5.76566 663.193C-2.39981 617.788 -1.27125 572.416 5.26777 526.978C18.7441 433.546 56.4845 350.403 111.253 274.296C158.951 208.047 214.782 150.096 282.628 104.26C347.786 60.2486 419.051 30.9079 495.86 14.578C554.81 2.19781 614.425 -1.41998 674.504 0.471892C765.287 3.3263 853.547 19.0256 937.891 53.71C1058.51 103.363 1151.29 185.444 1218.54 296.733C1255.91 358.568 1284.62 424.219 1301.88 494.584C1307.63 518.016 1312.21 541.715 1312.61 566.01C1312.64 568.566 1313.54 571.122 1314 573.677V613.473Z" fill="white"/>
<path d="M526 851.357C616.547 888.978 703.542 883.491 787.185 830C793.856 841.106 800.428 852.08 807 863.054C727.008 908.626 605.096 906.063 526 851.357Z" fill="white"/>
</svg>
