<svg width="126" height="113" viewBox="0 0 126 113" fill="none" xmlns="http://www.w3.org/2000/svg">
<path d="M87.7537 43.8547C87.0837 44.0006 86.4266 44.2093 85.7624 44.3866C83.5554 44.9756 81.3268 45.4673 79.0666 45.7933C77.3413 46.0435 75.6116 46.288 73.8762 46.4509C72.0143 46.6268 70.1437 46.7268 68.2746 46.8226C64.7636 47.0028 61.2467 46.9928 57.7328 46.9399C55.5632 46.9084 53.3936 46.8055 51.2268 46.6897C49.7488 46.611 48.2708 46.4867 46.7999 46.3251C42.7324 45.8834 38.7196 45.1485 34.7987 43.9605C34.0597 43.7361 33.3782 43.7875 32.7485 44.2765C32.5759 44.4094 32.4825 44.5495 32.504 44.764C32.5587 45.2987 32.6032 45.8333 32.6665 46.3666C32.816 47.649 32.9684 48.9299 33.128 50.2108C33.2963 51.5475 33.4745 52.8842 33.6456 54.2209C33.7923 55.3646 33.9361 56.5098 34.0827 57.6535C34.261 59.0588 34.4364 60.4641 34.6205 61.868C34.8031 63.2605 34.9857 64.6543 35.1841 66.0439C35.4127 67.638 35.6312 69.2348 35.903 70.8203C36.2624 72.9133 36.6405 75.0048 37.0589 77.0863C38.4924 84.2044 40.7296 91.0638 43.874 97.62C45.2385 100.464 46.8459 103.163 48.8229 105.633C50.1356 107.274 51.5647 108.805 53.2182 110.115C54.7753 111.346 56.5035 112.245 58.4546 112.681C58.9348 112.788 59.4265 112.847 59.9125 112.93C60.0117 112.947 60.1095 112.977 60.2087 113H61.6565C62.0059 112.943 62.3553 112.883 62.7047 112.826C64.6529 112.507 66.4113 111.73 68.0259 110.615C70.3422 109.014 72.2688 107.02 73.9294 104.764C75.6188 102.469 76.9818 99.9861 78.1996 97.4199C80.9487 91.627 83.045 85.6126 84.4166 79.348C85.0176 76.6031 85.5668 73.8497 85.9939 71.0733C85.9982 71.0448 86.0025 71.0176 86.0068 70.989C86.3893 68.5015 86.7544 66.0096 87.0952 63.5149C87.4388 60.9931 87.7408 58.4641 88.0657 55.9379C88.3044 54.0694 88.556 52.2023 88.7904 50.3324C88.799 50.2637 88.8076 50.1965 88.8162 50.1279C88.9787 48.8255 89.1268 47.5203 89.2806 46.2165C89.3108 45.9591 89.3381 45.7004 89.3669 45.443V44.6882C89.0549 44.0034 88.4999 43.6932 87.7537 43.8547ZM56.9492 61.3247H55.4697V62.1182H56.7149C56.7738 62.5371 56.6875 62.6471 56.3223 62.6543C56.0492 62.66 55.7745 62.6557 55.4741 62.6557V63.5335H56.9478V64.0682C56.2375 64.0839 55.5244 64.0768 54.7882 64.0725V60.8158H56.9492V61.3247ZM60.6156 64.0553C60.525 64.0396 60.4301 63.9309 60.3755 63.8409C60.2058 63.5592 60.0534 63.2676 59.8607 62.9216C59.7141 63.179 59.5919 63.3905 59.474 63.6036C59.1821 64.1297 59.1677 64.1382 58.4805 64.0396C58.7666 63.4849 59.1102 62.9788 59.4222 62.4155C59.1088 61.8837 58.8054 61.3662 58.4704 60.7958C58.6976 60.7958 58.8557 60.8015 59.0124 60.7943C59.1692 60.7872 59.2684 60.853 59.3402 60.9916C59.4941 61.2847 59.658 61.5706 59.8348 61.8923C59.8938 61.8194 59.9484 61.7694 59.9829 61.7079C60.1123 61.4791 60.2432 61.2518 60.3582 61.0159C60.4402 60.8501 60.5581 60.7801 60.7407 60.7943C60.8859 60.8044 61.0311 60.7958 61.241 60.7958C60.906 61.3691 60.6041 61.888 60.2935 62.4198C60.6055 62.9488 60.9175 63.4763 61.264 64.0653C61.0124 64.0653 60.8097 64.0882 60.6156 64.0553ZM63.6507 64.0539H63.0181V63.6979C63.0181 62.9116 63.0167 62.1239 63.0181 61.3376C63.0181 60.8129 63.0828 60.7586 63.6507 60.8244V64.0539ZM68.1812 64.0582C67.9928 64.0625 67.8016 64.0868 67.6161 64.061C67.537 64.051 67.4551 63.9467 67.4048 63.8652C67.0885 63.362 66.7822 62.8544 66.4716 62.3484C66.4055 62.2411 66.3379 62.1368 66.233 61.9738C66.1611 62.3655 66.2042 62.7 66.1956 63.0303C66.1884 63.3591 66.1942 63.6879 66.1942 64.0467H65.5472C65.5371 63.971 65.5184 63.8966 65.5184 63.8209C65.5155 62.9774 65.5141 62.1325 65.517 61.2876C65.5184 60.8916 65.655 60.7772 66.0374 60.7915C66.197 60.7986 66.2517 60.8959 66.3178 61.0031C66.6327 61.5192 66.949 62.0353 67.2653 62.5514C67.3257 62.6486 67.389 62.7429 67.4493 62.8387C67.4752 62.8359 67.5011 62.833 67.527 62.8301V60.8172H68.1812V64.0582Z" fill="#1E1328"/>
<path d="M61.6707 0C65.6025 0.123033 69.4251 0.799715 73.078 2.29471C78.3022 4.43491 82.3202 7.97283 85.2328 12.7697C86.8515 15.4349 88.095 18.2647 88.8425 21.2976C89.0912 22.3076 89.2896 23.3291 89.3069 24.3763C89.3083 24.4864 89.3471 24.5966 89.3673 24.7068V26.4221C89.3457 26.5193 89.3097 26.6166 89.3069 26.7153C89.2249 28.6109 88.6815 30.382 87.8003 32.0501C86.2549 34.9743 83.9576 37.1503 81.0321 38.6825C80.6569 38.8784 80.2717 39.0544 79.8576 39.2032C79.9151 39.1488 79.9755 39.0959 80.0316 39.0401C80.4427 38.6424 80.8898 38.2747 81.2564 37.8384C82.4208 36.4578 82.7385 34.8856 82.2311 33.1503C81.9277 32.1174 81.4102 31.1917 80.805 30.3105C79.7498 28.7726 78.4387 27.4879 76.9106 26.4192C76.8459 26.3749 76.7783 26.3348 76.6461 26.2518C76.7093 26.4206 76.7467 26.5236 76.7855 26.6252C77.109 27.4736 77.2685 28.3405 77.0975 29.2461C76.8243 30.6982 75.4787 31.8784 73.9966 31.9056C72.3204 31.9357 70.6427 31.94 68.9665 31.9028C68.0162 31.8827 67.3506 31.3477 66.9869 30.4864C66.4723 29.2704 66.4867 28.0358 66.9625 26.8098C67.5663 25.2533 68.62 24.1431 70.2316 23.6009C70.2948 23.5794 70.3552 23.5508 70.4874 23.4965C67.3032 22.6352 64.1247 22.3048 60.9045 22.2761C57.6757 22.2475 54.4958 22.5666 51.3259 23.4922C51.4596 23.5451 51.5329 23.5751 51.6062 23.6009C53.5239 24.2618 54.6208 25.6495 55.1053 27.5608C55.3597 28.568 55.2548 29.5608 54.8422 30.5136C54.4483 31.4235 53.7381 31.9013 52.7462 31.9113C51.1606 31.9271 49.5763 31.9271 47.9907 31.9113C46.0787 31.8942 44.5951 30.3048 44.6799 28.4006C44.7101 27.7311 44.8567 27.0916 45.14 26.4135C45.0422 26.4564 44.9948 26.4678 44.9574 26.495C43.5557 27.485 42.2518 28.5837 41.1952 29.9442C40.3772 30.9972 39.7806 32.1574 39.5147 33.475C39.1064 35.5008 39.6254 37.2304 41.1607 38.6395C41.2427 38.7139 41.3217 38.7912 41.3807 38.9028C41.3419 38.887 41.303 38.8742 41.2657 38.857C39.2703 37.9071 37.4489 36.7111 35.9365 35.0844C34.2129 33.2304 33.1562 31.0487 32.7077 28.5651C32.3541 26.608 32.403 24.6524 32.6862 22.6939C33.2698 18.6667 34.9043 15.083 37.2764 11.8026C39.3422 8.94708 41.7602 6.44922 44.6986 4.47354C47.5206 2.57654 50.6071 1.31188 53.9337 0.608012" fill="#1E1328"/>
<path d="M55.1953 36.648C59.1308 38.2936 62.912 38.0536 66.5475 35.7137C66.8374 36.1995 67.1231 36.6796 67.4087 37.1596C63.9319 39.1531 58.6331 39.041 55.1953 36.648Z" fill="#1E1328"/>
<path d="M91.3357 64.0087C92.229 61.6497 93.1063 59.2829 93.9603 56.9083C94.8228 54.5076 95.646 52.0914 96.4911 49.6827C97.1146 47.9007 97.7504 46.1227 98.3699 44.3385C98.3927 44.273 98.4152 44.2089 98.4379 44.1434C104.684 40.2204 122.239 29.6996 125.36 33.3119C128.971 37.4899 102.158 56.5734 91.3357 64.0087Z" fill="#1E1328"/>
<path d="M24.4182 48.4285C25.2241 50.8185 26.0472 53.2044 26.8934 55.5818C27.7495 57.9847 28.646 60.375 29.5207 62.7733C30.1692 64.5464 30.8055 66.3242 31.4585 68.0966C31.4825 68.1617 31.5057 68.2254 31.5297 68.2905C29.1797 75.2565 22.2537 94.4435 17.5397 93.605C12.0872 92.6354 20.7516 60.9928 24.4182 48.4285Z" fill="#1E1328"/>
</svg>
