<svg width="12" height="12" viewBox="0 0 12 12" fill="none" xmlns="http://www.w3.org/2000/svg">
<path d="M1.90871 8.2729C1.90869 8.24354 1.90869 8.21327 1.90869 8.18204V3.8184C1.90869 3.30927 1.90869 3.05451 2.00778 2.86004C2.09493 2.68898 2.23391 2.55001 2.40496 2.46285C2.59943 2.36377 2.85419 2.36377 3.36333 2.36377H8.63605C9.14519 2.36377 9.39963 2.36377 9.59409 2.46285C9.76515 2.55001 9.90437 2.68898 9.99152 2.86004C10.0905 3.05432 10.0905 3.30877 10.0905 3.81691V8.18336C10.0905 8.40382 10.0905 8.57645 10.0824 8.71713M1.90871 8.2729C1.90906 8.72214 1.91477 8.95732 2.00778 9.13986C2.09493 9.31091 2.23391 9.45035 2.40496 9.53751C2.59924 9.6365 2.85369 9.6365 3.36183 9.6365H8.63759C9.14573 9.6365 9.39982 9.6365 9.59409 9.53751C9.76515 9.45035 9.90437 9.31091 9.99152 9.13986C10.0476 9.02987 10.0719 8.90071 10.0824 8.71713M1.90871 8.2729L4.07595 5.74445L4.07659 5.74375C4.26881 5.51949 4.36508 5.40718 4.47927 5.3667C4.57957 5.33114 4.68908 5.33197 4.78889 5.36892C4.90262 5.41103 4.99735 5.52462 5.18683 5.752L6.401 7.209C6.5764 7.41948 6.6646 7.52532 6.7717 7.56781C6.86617 7.60528 6.97035 7.6095 7.06783 7.58074C7.17878 7.54799 7.27645 7.45033 7.47177 7.25502L7.69771 7.02907C7.89657 6.83021 7.996 6.73086 8.10855 6.69838C8.20739 6.66985 8.31307 6.67598 8.40816 6.71524C8.51643 6.75995 8.60423 6.8694 8.77992 7.089L10.0824 8.71713M10.0824 8.71713L10.0905 8.72723M7.36324 5.09104C7.1122 5.09104 6.90869 4.88754 6.90869 4.6365C6.90869 4.38546 7.1122 4.18195 7.36324 4.18195C7.61428 4.18195 7.81778 4.38546 7.81778 4.6365C7.81778 4.88754 7.61428 5.09104 7.36324 5.09104Z" stroke="white" stroke-linecap="round" stroke-linejoin="round"/>
</svg>
