<svg width="43" height="44" viewBox="0 0 43 44" fill="none" xmlns="http://www.w3.org/2000/svg">
<path d="M41.5364 18.4882C41.7443 19.7532 41.8656 21.0529 41.8656 22.4219C41.8656 28.7471 39.6128 34.0845 35.6964 37.7063C32.2652 40.8776 27.569 42.7491 21.9543 42.7491C13.8269 42.7491 6.80852 38.0703 3.39465 31.2772C1.97365 28.4698 1.15918 25.3159 1.15918 21.954C1.15918 18.5922 1.97365 15.4382 3.39465 12.6309C6.80852 5.83784 13.8269 1.15894 21.9543 1.15894C27.569 1.15894 32.2652 3.22112 35.8524 6.58299L29.9257 12.5096C27.7596 10.4474 25.0216 9.39033 21.9543 9.39033C16.5302 9.39033 11.938 13.0468 10.2917 17.9856C9.8758 19.2334 9.63319 20.5677 9.63319 21.954C9.63319 23.3404 9.85847 24.6747 10.2917 25.9224C11.938 30.8613 16.5302 34.5178 21.9543 34.5178C24.7616 34.5178 27.1357 33.7553 29.0073 32.5076C31.1908 31.0346 32.6638 28.8684 33.1663 26.3037H21.9543V18.4882H41.5364Z" stroke="white" stroke-width="1.55963" stroke-linejoin="round"/>
</svg>
