<svg width="48" height="24" viewBox="0 0 48 24" fill="none" xmlns="http://www.w3.org/2000/svg">
<path d="M46.6568 1.01002C46.4399 0.791321 46.1819 0.617734 45.8975 0.499274C45.6132 0.380814 45.3082 0.319824 45.0002 0.319824C44.6922 0.319824 44.3872 0.380814 44.1028 0.499274C43.8185 0.617734 43.5604 0.791321 43.3435 1.01002L28.6668 15.71L18.6568 5.67669C18.4399 5.45799 18.1819 5.2844 17.8975 5.16594C17.6132 5.04748 17.3082 4.98649 17.0002 4.98649C16.6922 4.98649 16.3872 5.04748 16.1028 5.16594C15.8185 5.2844 15.5604 5.45799 15.3435 5.67669L1.34352 19.6767C1.12482 19.8936 0.95123 20.1517 0.83277 20.436C0.71431 20.7203 0.65332 21.0253 0.65332 21.3334C0.65332 21.6414 0.71431 21.9464 0.83277 22.2307C0.95123 22.515 1.12482 22.7731 1.34352 22.99C1.56043 23.2087 1.8185 23.3823 2.10284 23.5008C2.38718 23.6192 2.69216 23.6802 3.00018 23.6802C3.30821 23.6802 3.61319 23.6192 3.89753 23.5008C4.18187 23.3823 4.43994 23.2087 4.65685 22.99L17.0002 10.6234L27.0102 20.6567C27.2271 20.8754 27.4852 21.049 27.7695 21.1674C28.0538 21.2859 28.3588 21.3469 28.6668 21.3469C28.9749 21.3469 29.2799 21.2859 29.5642 21.1674C29.8485 21.049 30.1066 20.8754 30.3235 20.6567L46.6568 4.32335C46.8755 4.10644 47.0491 3.84837 47.1676 3.56403C47.2861 3.27969 47.347 2.97471 47.347 2.66669C47.347 2.35866 47.2861 2.05368 47.1676 1.76934C47.0491 1.485 46.8755 1.22693 46.6568 1.01002Z" fill="url(#paint0_linear_377_733)"/>
<defs>
<linearGradient id="paint0_linear_377_733" x1="0.65332" y1="12" x2="47.347" y2="12" gradientUnits="userSpaceOnUse">
<stop stop-color="#3E243C"/>
<stop offset="0.755" stop-color="#71416D"/>
<stop offset="1" stop-color="#A45F9E"/>
</linearGradient>
</defs>
</svg>
