<svg width="50" height="50" viewBox="0 0 50 50" fill="none" xmlns="http://www.w3.org/2000/svg">
<path d="M6.36658 15.0652C6.46384 12.94 6.79661 11.5693 7.24664 10.4058L7.25269 10.3897C7.69864 9.2058 8.39725 8.13327 9.29988 7.24678L9.31255 7.23434L9.32498 7.22167C10.2122 6.31789 11.2851 5.61997 12.468 5.17519L12.4884 5.16739C13.6493 4.71596 15.0173 4.38443 17.1443 4.28719M6.36658 15.0652C6.26434 17.3359 6.23828 18.0398 6.23828 23.9273C6.23828 29.8162 6.26291 30.5184 6.36653 32.7897M6.36658 15.0652L6.36658 15.638M7.25454 37.4659C7.69931 38.6488 8.39723 39.7218 9.30102 40.609L9.31367 40.6214L9.32609 40.6341C10.2126 41.5367 11.2852 42.2353 12.4691 42.6813L12.4868 42.688C13.6487 43.1386 15.0174 43.4702 17.1443 43.5674M7.25454 37.4659L7.24673 37.4455C6.79531 36.2847 6.46377 34.9167 6.36653 32.7897M7.25454 37.4659L7.22787 37.3255M6.36653 32.7897L6.40136 32.9731M6.36653 32.7897L6.36653 32.2155M7.22787 37.3255L6.40136 32.9731M7.22787 37.3255C6.87685 36.3981 6.51538 35.1042 6.40136 32.9731M7.22787 37.3255C7.24019 37.358 7.25249 37.3901 7.26477 37.4218C7.70994 38.6219 8.41529 39.7085 9.33013 40.6037C10.2249 41.5184 11.3112 42.2236 12.5109 42.6687C13.4737 43.0438 14.8303 43.4357 17.1439 43.5417C19.4788 43.648 20.2002 43.6696 26.0067 43.6696C31.8132 43.6696 32.5351 43.6479 34.87 43.5417C37.1865 43.4355 38.5415 43.0414 39.5009 42.6693C40.7013 42.2244 41.7882 41.5189 42.6832 40.6037C43.5978 39.7089 44.303 38.6227 44.7481 37.423C45.1231 36.4603 45.515 35.1036 45.621 32.79C45.7273 30.4552 45.749 29.7324 45.749 23.9273C45.749 18.1223 45.7273 17.3988 45.621 15.064C45.5143 12.7354 45.1166 11.3783 44.7428 10.4181C44.2541 9.15647 43.6343 8.20228 42.6817 7.24966C41.731 6.30081 40.7793 5.6807 39.5168 5.1915C38.5531 4.81474 37.1952 4.41951 34.87 4.31295C34.6678 4.30375 34.4777 4.29518 34.2953 4.28721M6.40136 32.9731C6.39814 32.9129 6.39512 32.8521 6.3923 32.7906C6.38309 32.5883 6.37451 32.398 6.36653 32.2155M17.1443 4.28719C19.4155 4.18356 20.1192 4.15894 26.0067 4.15894C31.8941 4.15894 32.5974 4.18497 34.8681 4.28721M17.1443 4.28719L17.7185 4.28719M34.8681 4.28721L34.2953 4.28721M34.8681 4.28721C36.9937 4.38443 38.3646 4.71715 39.5282 5.16722L39.5442 5.17335C40.7282 5.6193 41.8007 6.3179 42.6872 7.22053L42.6995 7.23307L42.712 7.24538C43.6148 8.13195 44.3134 9.20478 44.7589 10.3891L44.7666 10.4091C45.218 11.5699 45.5495 12.9379 45.6468 15.0649M17.7185 4.28719L34.2953 4.28721M17.7185 4.28719C19.6418 4.20309 20.7048 4.18499 26.0067 4.18499C31.309 4.18499 32.3717 4.20309 34.2953 4.28721M17.7185 4.28719C17.536 4.29517 17.3457 4.30374 17.1433 4.31295C14.8268 4.41912 13.4718 4.81323 12.5124 5.18534C11.3075 5.63199 10.217 6.34109 9.32002 7.26128C8.37628 8.2089 7.75856 9.15853 7.27092 10.417C6.89414 11.3807 6.49884 12.7393 6.39227 15.0646C6.38309 15.2663 6.37454 15.456 6.36658 15.638M45.6468 32.7897C45.5495 34.9166 45.218 36.2853 44.7674 37.4472L44.7606 37.4649C44.3147 38.6488 43.6161 39.7214 42.7134 40.6078L42.7008 40.6203L42.6883 40.633C41.8011 41.5367 40.7282 42.2347 39.5453 42.6794L39.5249 42.6872C38.3641 43.1387 36.9961 43.4702 34.869 43.5674M6.36653 32.2155C6.28244 30.2922 6.26434 29.2292 6.26434 23.9273C6.26434 18.6238 6.28242 17.5623 6.36658 15.638M6.36653 32.2155L6.36658 15.638M22.4907 32.4156C23.6054 32.8773 24.8001 33.1149 26.0067 33.1149C28.4434 33.1149 30.7803 32.1469 32.5033 30.4239C34.2263 28.7009 35.1943 26.364 35.1943 23.9273C35.1943 21.4906 34.2263 19.1537 32.5033 17.4307C30.7803 15.7077 28.4434 14.7397 26.0067 14.7397C24.8001 14.7397 23.6054 14.9773 22.4907 15.4391C21.376 15.9008 20.3632 16.5775 19.5101 17.4307C18.6569 18.2838 17.9801 19.2967 17.5184 20.4114C17.0567 21.5261 16.8191 22.7208 16.8191 23.9273C16.8191 25.1338 17.0567 26.3286 17.5184 27.4433C17.9801 28.558 18.6569 29.5708 19.5101 30.4239C20.3632 31.2771 21.376 31.9538 22.4907 32.4156ZM19.4896 17.4102C21.218 15.6818 23.5623 14.7108 26.0067 14.7108C28.4511 14.7108 30.7953 15.6818 32.5238 17.4102C34.2522 19.1387 35.2232 21.4829 35.2232 23.9273C35.2232 26.3717 34.2522 28.716 32.5238 30.4444C30.7953 32.1728 28.4511 33.1439 26.0067 33.1439C23.5623 33.1439 21.218 32.1728 19.4896 30.4444C17.7611 28.716 16.7901 26.3717 16.7901 23.9273C16.7901 21.4829 17.7611 19.1387 19.4896 17.4102ZM40.413 12.5649C40.413 13.2646 40.1351 13.9355 39.6404 14.4302C39.1457 14.925 38.4747 15.2029 37.7751 15.2029C37.0754 15.2029 36.4045 14.925 35.9097 14.4302C35.415 13.9355 35.1371 13.2646 35.1371 12.5649C35.1371 11.8653 35.415 11.1943 35.9097 10.6996C36.4045 10.2049 37.0754 9.92697 37.7751 9.92697C38.4747 9.92697 39.1457 10.2049 39.6404 10.6996C40.1351 11.1943 40.413 11.8653 40.413 12.5649Z" stroke="white" stroke-width="1.55963" stroke-linejoin="round"/>
</svg>
