<svg width="38" height="52" viewBox="0 0 38 52" fill="none" xmlns="http://www.w3.org/2000/svg">
<path d="M30.8762 4.58C28.7302 2.81503 26.2173 1.5514 23.5207 0.881299C20.8242 0.211201 18.0121 0.151538 15.2895 0.706663C11.6644 1.43891 8.33851 3.2315 5.7338 5.85698C3.12909 8.48247 1.36297 11.8225 0.659538 15.4533C0.145848 18.1757 0.239193 20.9778 0.932917 23.66C1.62664 26.3421 2.90365 28.8381 4.67287 30.97C6.3148 32.8228 7.25595 35.1922 7.33287 37.6667V44.6667C7.33287 46.5232 8.07037 48.3037 9.38312 49.6164C10.6959 50.9292 12.4764 51.6667 14.3329 51.6667H23.6662C25.5227 51.6667 27.3032 50.9292 28.616 49.6164C29.9287 48.3037 30.6662 46.5232 30.6662 44.6667V38.11C30.7445 35.3781 31.7482 32.7537 33.5129 30.6667C36.6048 26.8418 38.0623 21.9512 37.5686 17.0578C37.0749 12.1643 34.6699 7.66347 30.8762 4.53333V4.58ZM25.9995 44.6667C25.9995 45.2855 25.7537 45.879 25.3161 46.3166C24.8785 46.7542 24.285 47 23.6662 47H14.3329C13.714 47 13.1205 46.7542 12.683 46.3166C12.2454 45.879 11.9995 45.2855 11.9995 44.6667V42.3333H25.9995V44.6667ZM29.8962 27.7733C27.5501 30.5561 26.1812 34.0314 25.9995 37.6667H21.3329V30.6667C21.3329 30.0478 21.087 29.4543 20.6495 29.0167C20.2119 28.5792 19.6184 28.3333 18.9995 28.3333C18.3807 28.3333 17.7872 28.5792 17.3496 29.0167C16.912 29.4543 16.6662 30.0478 16.6662 30.6667V37.6667H11.9995C11.938 34.0922 10.6157 30.6544 8.26621 27.96C6.71604 26.1027 5.67362 23.8753 5.2406 21.4951C4.80757 19.115 4.99872 16.6632 5.79541 14.3789C6.59209 12.0946 7.96712 10.0557 9.78642 8.46109C11.6057 6.86645 13.8072 5.77046 16.1762 5.28C18.2122 4.8608 20.3159 4.90023 22.3347 5.39543C24.3535 5.89062 26.2368 6.82915 27.8476 8.14289C29.4585 9.45662 30.7567 11.1126 31.6478 12.9905C32.5389 14.8685 33.0007 16.9213 32.9995 19C33.0168 22.1963 31.9194 25.2987 29.8962 27.7733Z" fill="url(#paint0_linear_377_737)"/>
<defs>
<linearGradient id="paint0_linear_377_737" x1="0.333008" y1="25.9985" x2="37.6629" y2="25.9985" gradientUnits="userSpaceOnUse">
<stop stop-color="#3E243C"/>
<stop offset="0.755" stop-color="#71416D"/>
<stop offset="1" stop-color="#A45F9E"/>
</linearGradient>
</defs>
</svg>
