<svg width="43" height="45" viewBox="0 0 43 45" fill="none" xmlns="http://www.w3.org/2000/svg">
<path d="M5.67647 17.0333C5.29609 17.4154 5.05973 17.9173 5.00757 18.4539C4.95541 18.9905 5.09066 19.5286 5.39034 19.9767C5.69001 20.4249 6.13563 20.7554 6.65144 20.9122C7.16725 21.0689 7.72144 21.0423 8.21981 20.8367C8.50338 20.7098 8.76366 20.5363 8.98981 20.3233C9.19969 20.1083 9.36607 19.8548 9.47981 19.5767C9.61319 19.2924 9.67717 18.9805 9.66647 18.6667C9.66389 18.0545 9.42088 17.4679 8.98981 17.0333C8.77289 16.8146 8.51482 16.641 8.23048 16.5226C7.94615 16.4041 7.64117 16.3431 7.33314 16.3431C7.02511 16.3431 6.72013 16.4041 6.43579 16.5226C6.15146 16.641 5.89339 16.8146 5.67647 17.0333ZM7.33314 4.66667C7.95198 4.66667 8.54547 4.9125 8.98305 5.35008C9.42064 5.78767 9.66647 6.38116 9.66647 7C9.66647 7.61884 9.42064 8.21233 8.98305 8.64991C8.54547 9.0875 7.95198 9.33333 7.33314 9.33333C6.7143 9.33333 6.12081 9.57916 5.68322 10.0167C5.24564 10.4543 4.99981 11.0478 4.99981 11.6667C4.99981 12.2855 5.24564 12.879 5.68322 13.3166C6.12081 13.7542 6.7143 14 7.33314 14C8.56171 13.9992 9.76843 13.6751 10.8321 13.0602C11.8957 12.4453 12.7787 11.5613 13.3925 10.4971C14.0063 9.43282 14.3291 8.22576 14.3286 6.99719C14.3282 5.76863 14.0043 4.56183 13.3897 3.49806C12.7751 2.43428 11.8913 1.55101 10.8272 0.936981C9.76308 0.322953 8.55609 -0.000196686 7.32753 8.98135e-08C6.09896 0.000196866 4.89209 0.323734 3.82817 0.938102C2.76424 1.55247 1.88076 2.43603 1.26647 3.5C1.1122 3.76631 1.01213 4.06051 0.972033 4.36566C0.931938 4.67081 0.952609 4.98088 1.03286 5.27801C1.1131 5.57513 1.25134 5.85345 1.4396 6.09693C1.62786 6.3404 1.86244 6.54423 2.12981 6.69666C2.66558 7.00087 3.29992 7.08082 3.89442 6.91908C4.48892 6.75734 4.99533 6.36704 5.30314 5.83333C5.50872 5.47725 5.80473 5.18182 6.16121 4.97695C6.51769 4.77207 6.92198 4.66503 7.33314 4.66667ZM35.3331 7H21.3331C20.7143 7 20.1208 7.24583 19.6832 7.68342C19.2456 8.121 18.9998 8.71449 18.9998 9.33333C18.9998 9.95217 19.2456 10.5457 19.6832 10.9832C20.1208 11.4208 20.7143 11.6667 21.3331 11.6667H35.3331C35.952 11.6667 36.5455 11.9125 36.9831 12.3501C37.4206 12.7877 37.6665 13.3812 37.6665 14V36.68L34.0031 33.2967C33.5728 32.8938 33.006 32.6687 32.4165 32.6667H11.9998C11.381 32.6667 10.7875 32.4208 10.3499 31.9832C9.91231 31.5457 9.66647 30.9522 9.66647 30.3333V28C9.66647 27.3812 9.42064 26.7877 8.98305 26.3501C8.54547 25.9125 7.95198 25.6667 7.33314 25.6667C6.7143 25.6667 6.12081 25.9125 5.68322 26.3501C5.24564 26.7877 4.99981 27.3812 4.99981 28V30.3333C4.99981 32.1898 5.7373 33.9703 7.05006 35.2831C8.36281 36.5958 10.1433 37.3333 11.9998 37.3333H31.5065L38.5065 43.7033C38.913 44.085 39.4427 44.3085 39.9998 44.3333C40.3198 44.3298 40.6364 44.2665 40.9331 44.1467C41.3505 43.9645 41.7055 43.6642 41.9542 43.2827C42.203 42.9013 42.3347 42.4554 42.3331 42V14C42.3331 12.1435 41.5956 10.363 40.2829 9.05025C38.9701 7.7375 37.1897 7 35.3331 7Z" fill="url(#paint0_linear_377_616)"/>
<defs>
<linearGradient id="paint0_linear_377_616" x1="0.952148" y1="22.1667" x2="42.3332" y2="22.1667" gradientUnits="userSpaceOnUse">
<stop stop-color="#3E243C"/>
<stop offset="0.755" stop-color="#71416D"/>
<stop offset="1" stop-color="#A45F9E"/>
</linearGradient>
</defs>
</svg>
