<svg width="25" height="24" viewBox="0 0 25 24" fill="none" xmlns="http://www.w3.org/2000/svg">
<path d="M9.82332 13.5L15.7992 16.5M15.7992 7.5L9.82332 10.5M18.7872 21C17.137 21 15.7992 19.6569 15.7992 18C15.7992 16.3431 17.137 15 18.7872 15C20.4374 15 21.7751 16.3431 21.7751 18C21.7751 19.6569 20.4374 21 18.7872 21ZM6.83536 15C5.18516 15 3.84741 13.6569 3.84741 12C3.84741 10.3431 5.18516 9 6.83536 9C8.48556 9 9.82332 10.3431 9.82332 12C9.82332 13.6569 8.48556 15 6.83536 15ZM18.7872 9C17.137 9 15.7992 7.65685 15.7992 6C15.7992 4.34315 17.137 3 18.7872 3C20.4374 3 21.7751 4.34315 21.7751 6C21.7751 7.65685 20.4374 9 18.7872 9Z" stroke="white" stroke-width="2" stroke-linecap="round" stroke-linejoin="round"/>
</svg>
