<svg width="44" height="44" viewBox="0 0 44 44" fill="none" xmlns="http://www.w3.org/2000/svg">
<path fill-rule="evenodd" clip-rule="evenodd" d="M42.7435 21.954C42.7435 33.4389 33.4332 42.7491 21.9484 42.7491C10.4636 42.7491 1.15332 33.4389 1.15332 21.954C1.15332 10.4692 10.4636 1.15894 21.9484 1.15894C33.4332 1.15894 42.7435 10.4692 42.7435 21.954ZM22.6936 16.5108C20.671 17.3521 16.6286 19.0933 10.5664 21.7345C9.58196 22.126 9.06628 22.509 9.01934 22.8834C8.94 23.5163 9.73252 23.7655 10.8117 24.1048C10.9585 24.151 11.1106 24.1988 11.2665 24.2495C12.3283 24.5946 13.7566 24.9984 14.4991 25.0145C15.1726 25.029 15.9243 24.7513 16.7542 24.1815C22.4183 20.358 25.3421 18.4255 25.5257 18.3838C25.6552 18.3544 25.8347 18.3175 25.9563 18.4255C26.0778 18.5336 26.0659 18.7383 26.053 18.7932C25.9745 19.1279 22.8636 22.0201 21.2537 23.5168C20.7518 23.9834 20.3958 24.3143 20.3231 24.3899C20.16 24.5592 19.9939 24.7194 19.8342 24.8734C18.8478 25.8243 18.1081 26.5373 19.8752 27.7018C20.7243 28.2614 21.4038 28.7242 22.0817 29.1858C22.8221 29.69 23.5605 30.1928 24.5159 30.8191C24.7593 30.9787 24.9918 31.1444 25.2182 31.3058C26.0798 31.9201 26.8539 32.4719 27.8102 32.3839C28.3658 32.3328 28.9398 31.8103 29.2313 30.2519C29.9202 26.5691 31.2744 18.5895 31.5873 15.3013C31.6147 15.0132 31.5802 14.6445 31.5525 14.4827C31.5248 14.3208 31.467 14.0902 31.2566 13.9195C31.0074 13.7173 30.6228 13.6747 30.4508 13.6776C29.6686 13.6915 28.4686 14.1088 22.6936 16.5108Z" stroke="white" stroke-width="1.55963" stroke-linejoin="round"/>
</svg>
