<svg width="50" height="44" viewBox="0 0 50 44" fill="none" xmlns="http://www.w3.org/2000/svg">
<path d="M49.43 37.9133L47.0967 28.9067L39.7467 1.86333C39.5878 1.26679 39.1991 0.757505 38.6655 0.446998C38.132 0.136491 37.4971 0.050072 36.9 0.206666L27.87 2.54C27.6545 2.30117 27.3919 2.10948 27.0988 1.97697C26.8057 1.84446 26.4883 1.774 26.1667 1.77H2.83333C2.21449 1.77 1.621 2.01583 1.18342 2.45342C0.745833 2.891 0.5 3.48449 0.5 4.10333V41.4367C0.5 42.0555 0.745833 42.649 1.18342 43.0866C1.621 43.5242 2.21449 43.77 2.83333 43.77H26.1667C26.7855 43.77 27.379 43.5242 27.8166 43.0866C28.2542 42.649 28.5 42.0555 28.5 41.4367V22.77L33.6333 41.95C33.7701 42.459 34.0751 42.9068 34.4988 43.2203C34.9225 43.5339 35.4399 43.6947 35.9667 43.6767C36.1682 43.6996 36.3718 43.6996 36.5733 43.6767L47.8433 40.6667C48.1413 40.587 48.4205 40.4491 48.6648 40.2608C48.9091 40.0726 49.1137 39.8378 49.2667 39.57C49.5128 39.0538 49.5706 38.4677 49.43 37.9133ZM12.0967 39.1967H5.09667V34.53H12.0967V39.1967ZM12.0967 29.8633H5.09667V15.8633H12.0967V29.8633ZM12.0967 11.1967H5.09667V6.53H12.0967V11.1967ZM23.7633 39.1967H16.7633V34.53H23.7633V39.1967ZM23.7633 29.8633H16.7633V15.8633H23.7633V29.8633ZM23.7633 11.1967H16.7633V6.53H23.7633V11.1967ZM29.0133 7.13667L35.78 5.31667L36.9933 9.82L30.2267 11.64L29.0133 7.13667ZM35.0567 29.6767L31.44 16.1433L38.2067 14.3233L41.8233 27.8567L35.0567 29.6767ZM37.39 38.6833L36.1767 34.18L42.9433 32.36L44.1567 36.8633L37.39 38.6833Z" fill="url(#paint0_linear_377_629)"/>
<defs>
<linearGradient id="paint0_linear_377_629" x1="0.5" y1="21.9502" x2="49.5052" y2="21.9502" gradientUnits="userSpaceOnUse">
<stop stop-color="#3E243C"/>
<stop offset="0.755" stop-color="#71416D"/>
<stop offset="1" stop-color="#A45F9E"/>
</linearGradient>
</defs>
</svg>
