<svg width="24" height="25" viewBox="0 0 24 25" fill="none" xmlns="http://www.w3.org/2000/svg">
<path d="M3.99512 7.76547H19.9886M4.99471 7.76547L5.99431 19.7606C5.99431 20.2908 6.20494 20.7993 6.57986 21.1743C6.95478 21.5492 7.46328 21.7598 7.9935 21.7598H15.9903C16.5205 21.7598 17.029 21.5492 17.4039 21.1743C17.7788 20.7993 17.9895 20.2908 17.9895 19.7606L18.9891 7.76547M8.9931 7.76547V4.76669C8.9931 4.50158 9.09841 4.24733 9.28587 4.05986C9.47333 3.8724 9.72758 3.76709 9.99269 3.76709H13.9911C14.2562 3.76709 14.5104 3.8724 14.6979 4.05986C14.8854 4.24733 14.9907 4.50158 14.9907 4.76669V7.76547M9.99269 12.7634L13.9911 16.7618M13.9911 12.7634L9.99269 16.7618" stroke="#D51717" stroke-width="1.65" stroke-linecap="round" stroke-linejoin="round"/>
</svg>
