<?xml version="1.0" encoding="UTF-8"?>
<svg xmlns="http://www.w3.org/2000/svg" xmlns:xlink="http://www.w3.org/1999/xlink" width="0" height="0">
<defs>
<symbol viewBox="0 0 10 11" id="Arrow">
<path d="M8.88797 1.04519C8.76752 0.992047 8.63775 0.963212 8.50613 0.960339L1.43506 0.960338C1.3032 0.960338 1.17264 0.98631 1.05081 1.03677C0.928992 1.08723 0.818301 1.16119 0.725062 1.25443C0.536759 1.44273 0.430971 1.69813 0.430971 1.96443C0.430971 2.09629 0.456942 2.22686 0.507403 2.34868C0.557863 2.4705 0.631824 2.58119 0.725063 2.67443C0.913367 2.86273 1.16876 2.96852 1.43506 2.96852L6.0949 2.96145L0.727956 8.32839C0.540419 8.51593 0.435063 8.77028 0.435063 9.0355C0.435063 9.30071 0.54042 9.55507 0.727956 9.7426C0.915492 9.93014 1.16985 10.0355 1.43506 10.0355C1.70028 10.0355 1.95463 9.93014 2.14217 9.7426L7.50911 4.37566L7.50204 9.0355C7.5015 9.16751 7.5271 9.29832 7.57737 9.42039C7.62764 9.54245 7.70158 9.65336 7.79492 9.7467C7.88827 9.84005 7.99917 9.91399 8.12124 9.96426C8.24331 10.0145 8.37412 10.0401 8.50613 10.0396C8.63814 10.0401 8.76895 10.0145 8.89102 9.96426C9.01309 9.91399 9.12399 9.84005 9.21734 9.7467C9.31068 9.65336 9.38462 9.54245 9.43489 9.42039C9.48516 9.29832 9.51076 9.16751 9.51022 9.0355L9.51022 1.96443C9.50735 1.83281 9.47851 1.70304 9.42537 1.58259C9.32394 1.33972 9.13084 1.14662 8.88797 1.04519Z"></path>
</symbol>
<symbol viewBox="0 0 48 48" id="CrossEyesLaugh">
<path d="M29.507 29.2034C27.9472 30.461 26.004 31.1468 24.0003 31.1468C21.9967 31.1468 20.0535 30.461 18.4937 29.2034C18.0172 28.8074 17.4028 28.6168 16.7858 28.6737C16.1689 28.7306 15.5997 29.0302 15.2037 29.5067C14.8076 29.9833 14.6171 30.5976 14.674 31.2146C14.7308 31.8316 15.0305 32.4007 15.507 32.7967C17.8901 34.7862 20.896 35.8759 24.0003 35.8759C27.1047 35.8759 30.1105 34.7862 32.4937 32.7967C32.9702 32.4007 33.2698 31.8316 33.3267 31.2146C33.3836 30.5976 33.1931 29.9833 32.797 29.5067C32.6009 29.2708 32.3602 29.0758 32.0888 28.9329C31.8173 28.7899 31.5203 28.7019 31.2148 28.6737C30.5978 28.6168 29.9835 28.8074 29.507 29.2034ZM17.0003 23.3234L17.677 22.6234L18.3537 23.3234C18.5706 23.5421 18.8287 23.7157 19.113 23.8342C19.3973 23.9526 19.7023 24.0136 20.0103 24.0136C20.3184 24.0136 20.6233 23.9526 20.9077 23.8342C21.192 23.7157 21.4501 23.5421 21.667 23.3234C21.8857 23.1065 22.0593 22.8484 22.1777 22.5641C22.2962 22.2798 22.3572 21.9748 22.3572 21.6667C22.3572 21.3587 22.2962 21.0537 22.1777 20.7694C22.0593 20.4851 21.8857 20.227 21.667 20.0101L20.967 19.3334L21.667 18.6567C22.1064 18.205 22.3483 17.5972 22.3395 16.9671C22.3308 16.337 22.0721 15.7361 21.6203 15.2967C21.1686 14.8574 20.5608 14.6155 19.9307 14.6242C19.3005 14.633 18.6997 14.8917 18.2603 15.3434L17.5837 16.0434L17.0003 15.3434C16.561 14.8917 15.9601 14.633 15.33 14.6242C14.6999 14.6155 14.0921 14.8574 13.6403 15.2967C13.1886 15.7361 12.9299 16.337 12.9211 16.9671C12.9124 17.5972 13.1543 18.205 13.5937 18.6567L14.2937 19.3334L13.5937 20.0101C13.375 20.227 13.2014 20.4851 13.0829 20.7694C12.9645 21.0537 12.9035 21.3587 12.9035 21.6667C12.9035 21.9748 12.9645 22.2798 13.0829 22.5641C13.2014 22.8484 13.375 23.1065 13.5937 23.3234C13.8106 23.5421 14.0687 23.7157 14.353 23.8342C14.6373 23.9526 14.9423 24.0136 15.2503 24.0136C15.5584 24.0136 15.8633 23.9526 16.1477 23.8342C16.432 23.7157 16.6901 23.5421 16.907 23.3234H17.0003ZM24.0003 0.666748C19.3854 0.666748 14.8742 2.03522 11.037 4.59912C7.19988 7.16302 4.20919 10.8072 2.44315 15.0708C0.677102 19.3344 0.215024 24.026 1.11535 28.5522C2.01567 33.0784 4.23795 37.236 7.50118 40.4992C10.7644 43.7625 14.922 45.9847 19.4482 46.8851C23.9745 47.7854 28.666 47.3233 32.9296 45.5573C37.1932 43.7912 40.8374 40.8005 43.4013 36.9634C45.9652 33.1262 47.3337 28.615 47.3337 24.0001C47.3337 20.9359 46.7301 17.9017 45.5575 15.0708C44.3849 12.2399 42.6662 9.66762 40.4995 7.50092C38.3328 5.33422 35.7605 3.6155 32.9296 2.44289C30.0987 1.27028 27.0645 0.666748 24.0003 0.666748ZM24.0003 42.6667C20.3084 42.6667 16.6994 41.572 13.6297 39.5208C10.56 37.4697 8.16742 34.5544 6.75459 31.1435C5.34175 27.7326 4.97209 23.9794 5.69234 20.3584C6.4126 16.7374 8.19043 13.4113 10.801 10.8008C13.4116 8.19017 16.7377 6.41235 20.3587 5.69209C23.9796 4.97183 27.7329 5.34149 31.1438 6.75433C34.5546 8.16717 37.47 10.5597 39.5211 13.6294C41.5722 16.6992 42.667 20.3082 42.667 24.0001C42.667 28.9508 40.7003 33.6987 37.1997 37.1994C33.699 40.7001 28.951 42.6667 24.0003 42.6667ZM35.667 15.3434C35.4501 15.1247 35.192 14.9511 34.9077 14.8327C34.6233 14.7142 34.3184 14.6532 34.0103 14.6532C33.7023 14.6532 33.3973 14.7142 33.113 14.8327C32.8287 14.9511 32.5706 15.1247 32.3537 15.3434L31.677 16.0434L31.0003 15.3434C30.561 14.904 29.965 14.6572 29.3437 14.6572C28.7223 14.6572 28.1264 14.904 27.687 15.3434C27.2476 15.7828 27.0008 16.3787 27.0008 17.0001C27.0008 17.6215 27.2476 18.2174 27.687 18.6567L28.387 19.3334L27.687 20.0101C27.4683 20.227 27.2947 20.4851 27.1763 20.7694C27.0578 21.0537 26.9968 21.3587 26.9968 21.6667C26.9968 21.9748 27.0578 22.2798 27.1763 22.5641C27.2947 22.8484 27.4683 23.1065 27.687 23.3234C27.9039 23.5421 28.162 23.7157 28.4463 23.8342C28.7307 23.9526 29.0356 24.0136 29.3437 24.0136C29.6517 24.0136 29.9567 23.9526 30.241 23.8342C30.5254 23.7157 30.7834 23.5421 31.0003 23.3234L31.677 22.6234L32.3537 23.3234C32.5706 23.5421 32.8287 23.7157 33.113 23.8342C33.3973 23.9526 33.7023 24.0136 34.0103 24.0136C34.3184 24.0136 34.6233 23.9526 34.9077 23.8342C35.192 23.7157 35.4501 23.5421 35.667 23.3234C35.8857 23.1065 36.0593 22.8484 36.1777 22.5641C36.2962 22.2798 36.3572 21.9748 36.3572 21.6667C36.3572 21.3587 36.2962 21.0537 36.1777 20.7694C36.0593 20.4851 35.8857 20.227 35.667 20.0101L34.967 19.3334L35.667 18.6567C35.8857 18.4398 36.0593 18.1818 36.1777 17.8974C36.2962 17.6131 36.3572 17.3081 36.3572 17.0001C36.3572 16.6921 36.2962 16.3871 36.1777 16.1027C36.0593 15.8184 35.8857 15.5603 35.667 15.3434Z"></path>
<defs>
<linearGradient id="paint0_linear_377_729" x1="0.666992" y1="24.0001" x2="47.3337" y2="24.0001" gradientUnits="userSpaceOnUse">
<stop stop-color="#3E243C"></stop>
<stop offset="0.755" stop-color="#71416D"></stop>
<stop offset="1" stop-color="#A45F9E"></stop>
</linearGradient>
</defs>
</symbol>
<symbol viewBox="0 0 38 52" id="lamp">
<path d="M30.8762 4.58C28.7302 2.81503 26.2173 1.5514 23.5207 0.881299C20.8242 0.211201 18.0121 0.151538 15.2895 0.706663C11.6644 1.43891 8.33851 3.2315 5.7338 5.85698C3.12909 8.48247 1.36297 11.8225 0.659538 15.4533C0.145848 18.1757 0.239193 20.9778 0.932917 23.66C1.62664 26.3421 2.90365 28.8381 4.67287 30.97C6.3148 32.8228 7.25595 35.1922 7.33287 37.6667V44.6667C7.33287 46.5232 8.07037 48.3037 9.38312 49.6164C10.6959 50.9292 12.4764 51.6667 14.3329 51.6667H23.6662C25.5227 51.6667 27.3032 50.9292 28.616 49.6164C29.9287 48.3037 30.6662 46.5232 30.6662 44.6667V38.11C30.7445 35.3781 31.7482 32.7537 33.5129 30.6667C36.6048 26.8418 38.0623 21.9512 37.5686 17.0578C37.0749 12.1643 34.6699 7.66347 30.8762 4.53333V4.58ZM25.9995 44.6667C25.9995 45.2855 25.7537 45.879 25.3161 46.3166C24.8785 46.7542 24.285 47 23.6662 47H14.3329C13.714 47 13.1205 46.7542 12.683 46.3166C12.2454 45.879 11.9995 45.2855 11.9995 44.6667V42.3333H25.9995V44.6667ZM29.8962 27.7733C27.5501 30.5561 26.1812 34.0314 25.9995 37.6667H21.3329V30.6667C21.3329 30.0478 21.087 29.4543 20.6495 29.0167C20.2119 28.5792 19.6184 28.3333 18.9995 28.3333C18.3807 28.3333 17.7872 28.5792 17.3496 29.0167C16.912 29.4543 16.6662 30.0478 16.6662 30.6667V37.6667H11.9995C11.938 34.0922 10.6157 30.6544 8.26621 27.96C6.71604 26.1027 5.67362 23.8753 5.2406 21.4951C4.80757 19.115 4.99872 16.6632 5.79541 14.3789C6.59209 12.0946 7.96712 10.0557 9.78642 8.46109C11.6057 6.86645 13.8072 5.77046 16.1762 5.28C18.2122 4.8608 20.3159 4.90023 22.3347 5.39543C24.3535 5.89062 26.2368 6.82915 27.8476 8.14289C29.4585 9.45662 30.7567 11.1126 31.6478 12.9905C32.5389 14.8685 33.0007 16.9213 32.9995 19C33.0168 22.1963 31.9194 25.2987 29.8962 27.7733Z"></path>
<defs>
<linearGradient id="paint0_linear_377_737" x1="0.333008" y1="25.9985" x2="37.6629" y2="25.9985" gradientUnits="userSpaceOnUse">
<stop stop-color="#3E243C"></stop>
<stop offset="0.755" stop-color="#71416D"></stop>
<stop offset="1" stop-color="#A45F9E"></stop>
</linearGradient>
</defs>
</symbol>
</defs>
</svg>