<?xml version="1.0" encoding="UTF-8"?>
<svg xmlns="http://www.w3.org/2000/svg" xmlns:xlink="http://www.w3.org/1999/xlink" width="0" height="0">
<defs>
<symbol viewBox="0 0 10 11" id="Arrow">
<path d="M8.88797 1.04519C8.76752 0.992047 8.63775 0.963212 8.50613 0.960339L1.43506 0.960338C1.3032 0.960338 1.17264 0.98631 1.05081 1.03677C0.928992 1.08723 0.818301 1.16119 0.725062 1.25443C0.536759 1.44273 0.430971 1.69813 0.430971 1.96443C0.430971 2.09629 0.456942 2.22686 0.507403 2.34868C0.557863 2.4705 0.631824 2.58119 0.725063 2.67443C0.913367 2.86273 1.16876 2.96852 1.43506 2.96852L6.0949 2.96145L0.727956 8.32839C0.540419 8.51593 0.435063 8.77028 0.435063 9.0355C0.435063 9.30071 0.54042 9.55507 0.727956 9.7426C0.915492 9.93014 1.16985 10.0355 1.43506 10.0355C1.70028 10.0355 1.95463 9.93014 2.14217 9.7426L7.50911 4.37566L7.50204 9.0355C7.5015 9.16751 7.5271 9.29832 7.57737 9.42039C7.62764 9.54245 7.70158 9.65336 7.79492 9.7467C7.88827 9.84005 7.99917 9.91399 8.12124 9.96426C8.24331 10.0145 8.37412 10.0401 8.50613 10.0396C8.63814 10.0401 8.76895 10.0145 8.89102 9.96426C9.01309 9.91399 9.12399 9.84005 9.21734 9.7467C9.31068 9.65336 9.38462 9.54245 9.43489 9.42039C9.48516 9.29832 9.51076 9.16751 9.51022 9.0355L9.51022 1.96443C9.50735 1.83281 9.47851 1.70304 9.42537 1.58259C9.32394 1.33972 9.13084 1.14662 8.88797 1.04519Z"></path>
</symbol>
<symbol viewBox="0 0 48 48" id="CrossEyesLaugh">
<path d="M29.507 29.2034C27.9472 30.461 26.004 31.1468 24.0003 31.1468C21.9967 31.1468 20.0535 30.461 18.4937 29.2034C18.0172 28.8074 17.4028 28.6168 16.7858 28.6737C16.1689 28.7306 15.5997 29.0302 15.2037 29.5067C14.8076 29.9833 14.6171 30.5976 14.674 31.2146C14.7308 31.8316 15.0305 32.4007 15.507 32.7967C17.8901 34.7862 20.896 35.8759 24.0003 35.8759C27.1047 35.8759 30.1105 34.7862 32.4937 32.7967C32.9702 32.4007 33.2698 31.8316 33.3267 31.2146C33.3836 30.5976 33.1931 29.9833 32.797 29.5067C32.6009 29.2708 32.3602 29.0758 32.0888 28.9329C31.8173 28.7899 31.5203 28.7019 31.2148 28.6737C30.5978 28.6168 29.9835 28.8074 29.507 29.2034ZM17.0003 23.3234L17.677 22.6234L18.3537 23.3234C18.5706 23.5421 18.8287 23.7157 19.113 23.8342C19.3973 23.9526 19.7023 24.0136 20.0103 24.0136C20.3184 24.0136 20.6233 23.9526 20.9077 23.8342C21.192 23.7157 21.4501 23.5421 21.667 23.3234C21.8857 23.1065 22.0593 22.8484 22.1777 22.5641C22.2962 22.2798 22.3572 21.9748 22.3572 21.6667C22.3572 21.3587 22.2962 21.0537 22.1777 20.7694C22.0593 20.4851 21.8857 20.227 21.667 20.0101L20.967 19.3334L21.667 18.6567C22.1064 18.205 22.3483 17.5972 22.3395 16.9671C22.3308 16.337 22.0721 15.7361 21.6203 15.2967C21.1686 14.8574 20.5608 14.6155 19.9307 14.6242C19.3005 14.633 18.6997 14.8917 18.2603 15.3434L17.5837 16.0434L17.0003 15.3434C16.561 14.8917 15.9601 14.633 15.33 14.6242C14.6999 14.6155 14.0921 14.8574 13.6403 15.2967C13.1886 15.7361 12.9299 16.337 12.9211 16.9671C12.9124 17.5972 13.1543 18.205 13.5937 18.6567L14.2937 19.3334L13.5937 20.0101C13.375 20.227 13.2014 20.4851 13.0829 20.7694C12.9645 21.0537 12.9035 21.3587 12.9035 21.6667C12.9035 21.9748 12.9645 22.2798 13.0829 22.5641C13.2014 22.8484 13.375 23.1065 13.5937 23.3234C13.8106 23.5421 14.0687 23.7157 14.353 23.8342C14.6373 23.9526 14.9423 24.0136 15.2503 24.0136C15.5584 24.0136 15.8633 23.9526 16.1477 23.8342C16.432 23.7157 16.6901 23.5421 16.907 23.3234H17.0003ZM24.0003 0.666748C19.3854 0.666748 14.8742 2.03522 11.037 4.59912C7.19988 7.16302 4.20919 10.8072 2.44315 15.0708C0.677102 19.3344 0.215024 24.026 1.11535 28.5522C2.01567 33.0784 4.23795 37.236 7.50118 40.4992C10.7644 43.7625 14.922 45.9847 19.4482 46.8851C23.9745 47.7854 28.666 47.3233 32.9296 45.5573C37.1932 43.7912 40.8374 40.8005 43.4013 36.9634C45.9652 33.1262 47.3337 28.615 47.3337 24.0001C47.3337 20.9359 46.7301 17.9017 45.5575 15.0708C44.3849 12.2399 42.6662 9.66762 40.4995 7.50092C38.3328 5.33422 35.7605 3.6155 32.9296 2.44289C30.0987 1.27028 27.0645 0.666748 24.0003 0.666748ZM24.0003 42.6667C20.3084 42.6667 16.6994 41.572 13.6297 39.5208C10.56 37.4697 8.16742 34.5544 6.75459 31.1435C5.34175 27.7326 4.97209 23.9794 5.69234 20.3584C6.4126 16.7374 8.19043 13.4113 10.801 10.8008C13.4116 8.19017 16.7377 6.41235 20.3587 5.69209C23.9796 4.97183 27.7329 5.34149 31.1438 6.75433C34.5546 8.16717 37.47 10.5597 39.5211 13.6294C41.5722 16.6992 42.667 20.3082 42.667 24.0001C42.667 28.9508 40.7003 33.6987 37.1997 37.1994C33.699 40.7001 28.951 42.6667 24.0003 42.6667ZM35.667 15.3434C35.4501 15.1247 35.192 14.9511 34.9077 14.8327C34.6233 14.7142 34.3184 14.6532 34.0103 14.6532C33.7023 14.6532 33.3973 14.7142 33.113 14.8327C32.8287 14.9511 32.5706 15.1247 32.3537 15.3434L31.677 16.0434L31.0003 15.3434C30.561 14.904 29.965 14.6572 29.3437 14.6572C28.7223 14.6572 28.1264 14.904 27.687 15.3434C27.2476 15.7828 27.0008 16.3787 27.0008 17.0001C27.0008 17.6215 27.2476 18.2174 27.687 18.6567L28.387 19.3334L27.687 20.0101C27.4683 20.227 27.2947 20.4851 27.1763 20.7694C27.0578 21.0537 26.9968 21.3587 26.9968 21.6667C26.9968 21.9748 27.0578 22.2798 27.1763 22.5641C27.2947 22.8484 27.4683 23.1065 27.687 23.3234C27.9039 23.5421 28.162 23.7157 28.4463 23.8342C28.7307 23.9526 29.0356 24.0136 29.3437 24.0136C29.6517 24.0136 29.9567 23.9526 30.241 23.8342C30.5254 23.7157 30.7834 23.5421 31.0003 23.3234L31.677 22.6234L32.3537 23.3234C32.5706 23.5421 32.8287 23.7157 33.113 23.8342C33.3973 23.9526 33.7023 24.0136 34.0103 24.0136C34.3184 24.0136 34.6233 23.9526 34.9077 23.8342C35.192 23.7157 35.4501 23.5421 35.667 23.3234C35.8857 23.1065 36.0593 22.8484 36.1777 22.5641C36.2962 22.2798 36.3572 21.9748 36.3572 21.6667C36.3572 21.3587 36.2962 21.0537 36.1777 20.7694C36.0593 20.4851 35.8857 20.227 35.667 20.0101L34.967 19.3334L35.667 18.6567C35.8857 18.4398 36.0593 18.1818 36.1777 17.8974C36.2962 17.6131 36.3572 17.3081 36.3572 17.0001C36.3572 16.6921 36.2962 16.3871 36.1777 16.1027C36.0593 15.8184 35.8857 15.5603 35.667 15.3434Z"></path>
<defs>
<linearGradient id="paint0_linear_377_729" x1="0.666992" y1="24.0001" x2="47.3337" y2="24.0001" gradientUnits="userSpaceOnUse">
<stop stop-color="#3E243C"></stop>
<stop offset="0.755" stop-color="#71416D"></stop>
<stop offset="1" stop-color="#A45F9E"></stop>
</linearGradient>
</defs>
</symbol>
<symbol viewBox="0 0 393 349" id="ExinIcon">
<path d="M293.052 135.445C290.993 135.895 288.975 136.54 286.934 137.088C280.154 138.907 273.307 140.426 266.364 141.432C261.063 142.205 255.749 142.96 250.418 143.463C244.698 144.007 238.951 144.316 233.209 144.611C222.423 145.168 211.619 145.137 200.823 144.973C194.158 144.876 187.493 144.558 180.836 144.201C176.295 143.958 171.755 143.574 167.236 143.075C154.74 141.711 142.412 139.441 130.367 135.772C128.096 135.079 126.003 135.238 124.068 136.748C123.538 137.158 123.251 137.591 123.317 138.253C123.485 139.905 123.622 141.556 123.816 143.203C124.276 147.164 124.744 151.12 125.234 155.076C125.751 159.204 126.299 163.333 126.824 167.461C127.275 170.993 127.716 174.53 128.167 178.062C128.715 182.403 129.254 186.743 129.819 191.079C130.38 195.379 130.941 199.684 131.55 203.976C132.253 208.899 132.924 213.831 133.759 218.728C134.863 225.192 136.025 231.652 137.31 238.081C141.714 260.065 148.587 281.25 158.247 301.499C162.439 310.281 167.377 318.617 173.451 326.247C177.483 331.316 181.874 336.045 186.954 340.089C191.737 343.891 197.047 346.668 203.041 348.015C204.516 348.346 206.027 348.527 207.52 348.783C207.824 348.836 208.125 348.929 208.429 348.999H212.877C213.951 348.823 215.024 348.637 216.097 348.461C222.083 347.476 227.485 345.078 232.445 341.634C239.561 336.689 245.48 330.53 250.581 323.562C255.771 316.476 259.959 308.806 263.7 300.881C272.146 282.989 278.586 264.414 282.8 245.066C284.646 236.588 286.333 228.084 287.645 219.51C287.658 219.421 287.672 219.337 287.685 219.249C288.86 211.566 289.982 203.87 291.028 196.165C292.084 188.377 293.012 180.566 294.01 172.764C294.743 166.993 295.516 161.227 296.236 155.451C296.263 155.239 296.289 155.032 296.316 154.82C296.815 150.797 297.27 146.766 297.742 142.739C297.835 141.945 297.919 141.145 298.007 140.351V138.019C297.049 135.904 295.344 134.946 293.052 135.445ZM198.416 189.401H193.871V191.852H197.696C197.877 193.145 197.612 193.485 196.49 193.507C195.651 193.525 194.807 193.512 193.884 193.512V196.223H198.412V197.874C196.229 197.923 194.039 197.901 191.777 197.887V187.829H198.416V189.401ZM209.679 197.834C209.401 197.786 209.11 197.45 208.942 197.172C208.421 196.302 207.952 195.402 207.36 194.333C206.91 195.128 206.534 195.781 206.172 196.439C205.276 198.064 205.231 198.091 203.12 197.786C203.999 196.073 205.055 194.51 206.013 192.77C205.05 191.127 204.118 189.529 203.089 187.767C203.787 187.767 204.273 187.785 204.754 187.763C205.236 187.741 205.541 187.944 205.762 188.372C206.234 189.277 206.738 190.16 207.281 191.154C207.462 190.929 207.63 190.774 207.736 190.584C208.133 189.878 208.535 189.176 208.889 188.447C209.141 187.935 209.503 187.719 210.064 187.763C210.51 187.794 210.956 187.767 211.601 187.767C210.572 189.538 209.644 191.141 208.69 192.783C209.649 194.417 210.607 196.046 211.672 197.865C210.899 197.865 210.276 197.936 209.679 197.834ZM219.004 197.83H217.06V196.731C217.06 194.302 217.056 191.869 217.06 189.441C217.06 187.82 217.259 187.653 219.004 187.856V197.83ZM232.922 197.843C232.343 197.856 231.756 197.932 231.186 197.852C230.943 197.821 230.691 197.499 230.537 197.247C229.565 195.693 228.624 194.125 227.67 192.562C227.467 192.231 227.259 191.909 226.937 191.406C226.716 192.615 226.849 193.649 226.822 194.669C226.8 195.684 226.818 196.7 226.818 197.808H224.83C224.799 197.574 224.742 197.344 224.742 197.11C224.733 194.505 224.728 191.896 224.737 189.286C224.742 188.063 225.161 187.71 226.336 187.754C226.826 187.776 226.994 188.076 227.198 188.408C228.165 190.002 229.137 191.595 230.108 193.189C230.294 193.49 230.488 193.781 230.674 194.077C230.753 194.068 230.833 194.059 230.912 194.05V187.834H232.922V197.843Z"></path>
<path d="M212.92 0C224.999 0.379986 236.743 2.46991 247.965 7.08719C264.014 13.6972 276.358 24.624 285.306 39.4391C290.279 47.6706 294.099 56.4103 296.396 65.7774C297.16 68.8968 297.769 72.0516 297.822 75.2859C297.827 75.6261 297.946 75.9664 298.008 76.3066V81.6043C297.941 81.9048 297.831 82.2052 297.822 82.5101C297.57 88.3645 295.901 93.8346 293.194 98.9865C288.446 108.018 281.389 114.738 272.401 119.47C271.248 120.076 270.065 120.619 268.793 121.079C268.969 120.911 269.155 120.747 269.327 120.575C270.59 119.347 271.964 118.211 273.09 116.864C276.667 112.6 277.643 107.744 276.084 102.384C275.153 99.1941 273.563 96.3354 271.703 93.6136C268.462 88.8638 264.434 84.896 259.739 81.5955C259.54 81.4585 259.333 81.3348 258.926 81.0785C259.121 81.5999 259.236 81.918 259.355 82.2317C260.349 84.8519 260.839 87.5294 260.313 90.3263C259.474 94.811 255.34 98.4563 250.787 98.5402C245.637 98.633 240.483 98.6462 235.334 98.5314C232.415 98.4695 230.37 96.817 229.252 94.1571C227.671 90.4014 227.715 86.5883 229.177 82.8017C231.032 77.9944 234.269 74.5657 239.22 72.8911C239.415 72.8248 239.6 72.7365 240.006 72.5686C230.224 69.9087 220.459 68.888 210.566 68.7996C200.647 68.7113 190.878 69.6966 181.139 72.5553C181.55 72.7188 181.775 72.8116 182.001 72.8911C187.892 74.9324 191.262 79.2183 192.75 85.1214C193.532 88.232 193.21 91.2984 191.942 94.2411C190.732 97.0512 188.55 98.5269 185.503 98.5579C180.632 98.6065 175.765 98.6065 170.893 98.5579C165.019 98.5049 160.462 93.596 160.722 87.715C160.815 85.6472 161.265 83.6721 162.135 81.5778C161.835 81.7103 161.689 81.7457 161.575 81.8296C157.269 84.8872 153.263 88.2806 150.017 92.4825C147.504 95.7345 145.671 99.3179 144.854 103.387C143.6 109.644 145.194 114.986 149.911 119.338C150.162 119.568 150.405 119.806 150.586 120.151C150.467 120.102 150.348 120.062 150.233 120.009C144.103 117.076 138.507 113.382 133.861 108.358C128.566 102.632 125.32 95.8936 123.942 88.2231C122.856 82.1787 123.006 76.1387 123.876 70.0898C125.669 57.6519 130.69 46.5837 137.977 36.4522C144.324 27.633 151.752 19.9184 160.78 13.8165C169.449 7.95762 178.931 4.05172 189.151 1.87784"></path>
<path d="M193.027 113.187C205.118 118.269 216.734 117.528 227.903 110.301C228.793 111.802 229.671 113.284 230.549 114.767C219.867 120.924 203.589 120.578 193.027 113.187Z"></path>
<path d="M311.294 150.75C310.391 158.483 309.433 166.214 308.401 173.935C307.355 181.738 306.179 189.53 305.074 197.331C304.252 203.1 303.469 208.876 302.632 214.646C302.602 214.857 302.572 215.065 302.542 215.277C314.035 234.844 347.054 288.454 360.694 282.939C376.469 276.561 330.305 186.405 311.294 150.75Z"></path>
<path d="M118.436 151.729C114.732 158.578 111.074 165.456 107.484 172.368C103.857 179.357 100.343 186.409 96.7649 193.429C94.1235 198.624 91.4462 203.801 88.8158 209.004C88.7192 209.195 88.6241 209.381 88.5275 209.572C67.8784 218.985 10.0517 243.894 2.05679 231.544C-7.19085 217.26 82.3912 169.99 118.436 151.729Z"></path>
</symbol>
<symbol viewBox="0 0 38 52" id="lamp">
<path d="M30.8762 4.58C28.7302 2.81503 26.2173 1.5514 23.5207 0.881299C20.8242 0.211201 18.0121 0.151538 15.2895 0.706663C11.6644 1.43891 8.33851 3.2315 5.7338 5.85698C3.12909 8.48247 1.36297 11.8225 0.659538 15.4533C0.145848 18.1757 0.239193 20.9778 0.932917 23.66C1.62664 26.3421 2.90365 28.8381 4.67287 30.97C6.3148 32.8228 7.25595 35.1922 7.33287 37.6667V44.6667C7.33287 46.5232 8.07037 48.3037 9.38312 49.6164C10.6959 50.9292 12.4764 51.6667 14.3329 51.6667H23.6662C25.5227 51.6667 27.3032 50.9292 28.616 49.6164C29.9287 48.3037 30.6662 46.5232 30.6662 44.6667V38.11C30.7445 35.3781 31.7482 32.7537 33.5129 30.6667C36.6048 26.8418 38.0623 21.9512 37.5686 17.0578C37.0749 12.1643 34.6699 7.66347 30.8762 4.53333V4.58ZM25.9995 44.6667C25.9995 45.2855 25.7537 45.879 25.3161 46.3166C24.8785 46.7542 24.285 47 23.6662 47H14.3329C13.714 47 13.1205 46.7542 12.683 46.3166C12.2454 45.879 11.9995 45.2855 11.9995 44.6667V42.3333H25.9995V44.6667ZM29.8962 27.7733C27.5501 30.5561 26.1812 34.0314 25.9995 37.6667H21.3329V30.6667C21.3329 30.0478 21.087 29.4543 20.6495 29.0167C20.2119 28.5792 19.6184 28.3333 18.9995 28.3333C18.3807 28.3333 17.7872 28.5792 17.3496 29.0167C16.912 29.4543 16.6662 30.0478 16.6662 30.6667V37.6667H11.9995C11.938 34.0922 10.6157 30.6544 8.26621 27.96C6.71604 26.1027 5.67362 23.8753 5.2406 21.4951C4.80757 19.115 4.99872 16.6632 5.79541 14.3789C6.59209 12.0946 7.96712 10.0557 9.78642 8.46109C11.6057 6.86645 13.8072 5.77046 16.1762 5.28C18.2122 4.8608 20.3159 4.90023 22.3347 5.39543C24.3535 5.89062 26.2368 6.82915 27.8476 8.14289C29.4585 9.45662 30.7567 11.1126 31.6478 12.9905C32.5389 14.8685 33.0007 16.9213 32.9995 19C33.0168 22.1963 31.9194 25.2987 29.8962 27.7733Z"></path>
<defs>
<linearGradient id="paint0_linear_377_737" x1="0.333008" y1="25.9985" x2="37.6629" y2="25.9985" gradientUnits="userSpaceOnUse">
<stop stop-color="#3E243C"></stop>
<stop offset="0.755" stop-color="#71416D"></stop>
<stop offset="1" stop-color="#A45F9E"></stop>
</linearGradient>
</defs>
</symbol>
</defs>
</svg>